<?xml version="1.0" encoding="utf-8"?>
<svg xmlns="http://www.w3.org/2000/svg" xmlns:xlink="http://www.w3.org/1999/xlink" width="600" height="400" viewBox="0 0 2400 1600">
<defs>
  <clipPath id="clip270">
    <rect x="0" y="0" width="2400" height="1600"/>
  </clipPath>
</defs>
<path clip-path="url(#clip270)" d="
M0 1600 L2400 1600 L2400 0 L0 0  Z
  " fill="#ffffff" fill-rule="evenodd" fill-opacity="1"/>
<defs>
  <clipPath id="clip271">
    <rect x="480" y="0" width="1681" height="1600"/>
  </clipPath>
</defs>
<defs>
  <clipPath id="clip272">
    <rect x="245" y="47" width="2108" height="1377"/>
  </clipPath>
</defs>
<path clip-path="url(#clip270)" d="
M245.327 1423.18 L2352.76 1423.18 L2352.76 47.2441 L245.327 47.2441  Z
  " fill="#ffffff" fill-rule="evenodd" fill-opacity="1"/>
<polyline clip-path="url(#clip272)" style="stroke:#000000; stroke-linecap:butt; stroke-linejoin:round; stroke-width:2; stroke-opacity:0.1; fill:none" points="
  298.322,1423.18 298.322,47.2441 
  "/>
<polyline clip-path="url(#clip272)" style="stroke:#000000; stroke-linecap:butt; stroke-linejoin:round; stroke-width:2; stroke-opacity:0.1; fill:none" points="
  963.252,1423.18 963.252,47.2441 
  "/>
<polyline clip-path="url(#clip272)" style="stroke:#000000; stroke-linecap:butt; stroke-linejoin:round; stroke-width:2; stroke-opacity:0.1; fill:none" points="
  1628.18,1423.18 1628.18,47.2441 
  "/>
<polyline clip-path="url(#clip272)" style="stroke:#000000; stroke-linecap:butt; stroke-linejoin:round; stroke-width:2; stroke-opacity:0.1; fill:none" points="
  2293.11,1423.18 2293.11,47.2441 
  "/>
<polyline clip-path="url(#clip270)" style="stroke:#000000; stroke-linecap:butt; stroke-linejoin:round; stroke-width:4; stroke-opacity:1; fill:none" points="
  245.327,1423.18 2352.76,1423.18 
  "/>
<polyline clip-path="url(#clip270)" style="stroke:#000000; stroke-linecap:butt; stroke-linejoin:round; stroke-width:4; stroke-opacity:1; fill:none" points="
  298.322,1423.18 298.322,1404.28 
  "/>
<polyline clip-path="url(#clip270)" style="stroke:#000000; stroke-linecap:butt; stroke-linejoin:round; stroke-width:4; stroke-opacity:1; fill:none" points="
  963.252,1423.18 963.252,1404.28 
  "/>
<polyline clip-path="url(#clip270)" style="stroke:#000000; stroke-linecap:butt; stroke-linejoin:round; stroke-width:4; stroke-opacity:1; fill:none" points="
  1628.18,1423.18 1628.18,1404.28 
  "/>
<polyline clip-path="url(#clip270)" style="stroke:#000000; stroke-linecap:butt; stroke-linejoin:round; stroke-width:4; stroke-opacity:1; fill:none" points="
  2293.11,1423.18 2293.11,1404.28 
  "/>
<path clip-path="url(#clip270)" d="M298.322 1454.1 Q294.711 1454.1 292.882 1457.66 Q291.077 1461.2 291.077 1468.33 Q291.077 1475.44 292.882 1479.01 Q294.711 1482.55 298.322 1482.55 Q301.956 1482.55 303.762 1479.01 Q305.591 1475.44 305.591 1468.33 Q305.591 1461.2 303.762 1457.66 Q301.956 1454.1 298.322 1454.1 M298.322 1450.39 Q304.132 1450.39 307.188 1455 Q310.267 1459.58 310.267 1468.33 Q310.267 1477.06 307.188 1481.67 Q304.132 1486.25 298.322 1486.25 Q292.512 1486.25 289.433 1481.67 Q286.378 1477.06 286.378 1468.33 Q286.378 1459.58 289.433 1455 Q292.512 1450.39 298.322 1450.39 Z" fill="#000000" fill-rule="evenodd" fill-opacity="1" /><path clip-path="url(#clip270)" d="M922.859 1481.64 L930.498 1481.64 L930.498 1455.28 L922.187 1456.95 L922.187 1452.69 L930.451 1451.02 L935.127 1451.02 L935.127 1481.64 L942.766 1481.64 L942.766 1485.58 L922.859 1485.58 L922.859 1481.64 Z" fill="#000000" fill-rule="evenodd" fill-opacity="1" /><path clip-path="url(#clip270)" d="M962.21 1454.1 Q958.599 1454.1 956.771 1457.66 Q954.965 1461.2 954.965 1468.33 Q954.965 1475.44 956.771 1479.01 Q958.599 1482.55 962.21 1482.55 Q965.845 1482.55 967.65 1479.01 Q969.479 1475.44 969.479 1468.33 Q969.479 1461.2 967.65 1457.66 Q965.845 1454.1 962.21 1454.1 M962.21 1450.39 Q968.021 1450.39 971.076 1455 Q974.155 1459.58 974.155 1468.33 Q974.155 1477.06 971.076 1481.67 Q968.021 1486.25 962.21 1486.25 Q956.4 1486.25 953.322 1481.67 Q950.266 1477.06 950.266 1468.33 Q950.266 1459.58 953.322 1455 Q956.4 1450.39 962.21 1450.39 Z" fill="#000000" fill-rule="evenodd" fill-opacity="1" /><path clip-path="url(#clip270)" d="M992.372 1454.1 Q988.761 1454.1 986.932 1457.66 Q985.127 1461.2 985.127 1468.33 Q985.127 1475.44 986.932 1479.01 Q988.761 1482.55 992.372 1482.55 Q996.006 1482.55 997.812 1479.01 Q999.641 1475.44 999.641 1468.33 Q999.641 1461.2 997.812 1457.66 Q996.006 1454.1 992.372 1454.1 M992.372 1450.39 Q998.182 1450.39 1001.24 1455 Q1004.32 1459.58 1004.32 1468.33 Q1004.32 1477.06 1001.24 1481.67 Q998.182 1486.25 992.372 1486.25 Q986.562 1486.25 983.483 1481.67 Q980.428 1477.06 980.428 1468.33 Q980.428 1459.58 983.483 1455 Q986.562 1450.39 992.372 1450.39 Z" fill="#000000" fill-rule="evenodd" fill-opacity="1" /><path clip-path="url(#clip270)" d="M1591.87 1481.64 L1608.19 1481.64 L1608.19 1485.58 L1586.25 1485.58 L1586.25 1481.64 Q1588.91 1478.89 1593.49 1474.26 Q1598.1 1469.61 1599.28 1468.27 Q1601.53 1465.74 1602.41 1464.01 Q1603.31 1462.25 1603.31 1460.56 Q1603.31 1457.8 1601.36 1456.07 Q1599.44 1454.33 1596.34 1454.33 Q1594.14 1454.33 1591.69 1455.09 Q1589.26 1455.86 1586.48 1457.41 L1586.48 1452.69 Q1589.3 1451.55 1591.76 1450.97 Q1594.21 1450.39 1596.25 1450.39 Q1601.62 1450.39 1604.81 1453.08 Q1608.01 1455.77 1608.01 1460.26 Q1608.01 1462.39 1607.2 1464.31 Q1606.41 1466.2 1604.3 1468.8 Q1603.73 1469.47 1600.62 1472.69 Q1597.52 1475.88 1591.87 1481.64 Z" fill="#000000" fill-rule="evenodd" fill-opacity="1" /><path clip-path="url(#clip270)" d="M1628.01 1454.1 Q1624.4 1454.1 1622.57 1457.66 Q1620.76 1461.2 1620.76 1468.33 Q1620.76 1475.44 1622.57 1479.01 Q1624.4 1482.55 1628.01 1482.55 Q1631.64 1482.55 1633.45 1479.01 Q1635.28 1475.44 1635.28 1468.33 Q1635.28 1461.2 1633.45 1457.66 Q1631.64 1454.1 1628.01 1454.1 M1628.01 1450.39 Q1633.82 1450.39 1636.87 1455 Q1639.95 1459.58 1639.95 1468.33 Q1639.95 1477.06 1636.87 1481.67 Q1633.82 1486.25 1628.01 1486.25 Q1622.2 1486.25 1619.12 1481.67 Q1616.06 1477.06 1616.06 1468.33 Q1616.06 1459.58 1619.12 1455 Q1622.2 1450.39 1628.01 1450.39 Z" fill="#000000" fill-rule="evenodd" fill-opacity="1" /><path clip-path="url(#clip270)" d="M1658.17 1454.1 Q1654.56 1454.1 1652.73 1457.66 Q1650.92 1461.2 1650.92 1468.33 Q1650.92 1475.44 1652.73 1479.01 Q1654.56 1482.55 1658.17 1482.55 Q1661.8 1482.55 1663.61 1479.01 Q1665.44 1475.44 1665.44 1468.33 Q1665.44 1461.2 1663.61 1457.66 Q1661.8 1454.1 1658.17 1454.1 M1658.17 1450.39 Q1663.98 1450.39 1667.04 1455 Q1670.11 1459.58 1670.11 1468.33 Q1670.11 1477.06 1667.04 1481.67 Q1663.98 1486.25 1658.17 1486.25 Q1652.36 1486.25 1649.28 1481.67 Q1646.23 1477.06 1646.23 1468.33 Q1646.23 1459.58 1649.28 1455 Q1652.36 1450.39 1658.17 1450.39 Z" fill="#000000" fill-rule="evenodd" fill-opacity="1" /><path clip-path="url(#clip270)" d="M2266.87 1466.95 Q2270.23 1467.66 2272.1 1469.93 Q2274 1472.2 2274 1475.53 Q2274 1480.65 2270.48 1483.45 Q2266.97 1486.25 2260.48 1486.25 Q2258.31 1486.25 2255.99 1485.81 Q2253.7 1485.39 2251.25 1484.54 L2251.25 1480.02 Q2253.19 1481.16 2255.51 1481.74 Q2257.82 1482.32 2260.35 1482.32 Q2264.74 1482.32 2267.04 1480.58 Q2269.35 1478.84 2269.35 1475.53 Q2269.35 1472.48 2267.2 1470.77 Q2265.07 1469.03 2261.25 1469.03 L2257.22 1469.03 L2257.22 1465.19 L2261.43 1465.19 Q2264.88 1465.19 2266.71 1463.82 Q2268.54 1462.43 2268.54 1459.84 Q2268.54 1457.18 2266.64 1455.77 Q2264.77 1454.33 2261.25 1454.33 Q2259.33 1454.33 2257.13 1454.75 Q2254.93 1455.16 2252.29 1456.04 L2252.29 1451.88 Q2254.95 1451.14 2257.27 1450.77 Q2259.6 1450.39 2261.67 1450.39 Q2266.99 1450.39 2270.09 1452.83 Q2273.19 1455.23 2273.19 1459.35 Q2273.19 1462.22 2271.55 1464.21 Q2269.91 1466.18 2266.87 1466.95 Z" fill="#000000" fill-rule="evenodd" fill-opacity="1" /><path clip-path="url(#clip270)" d="M2292.87 1454.1 Q2289.26 1454.1 2287.43 1457.66 Q2285.62 1461.2 2285.62 1468.33 Q2285.62 1475.44 2287.43 1479.01 Q2289.26 1482.55 2292.87 1482.55 Q2296.5 1482.55 2298.31 1479.01 Q2300.14 1475.44 2300.14 1468.33 Q2300.14 1461.2 2298.31 1457.66 Q2296.5 1454.1 2292.87 1454.1 M2292.87 1450.39 Q2298.68 1450.39 2301.73 1455 Q2304.81 1459.58 2304.81 1468.33 Q2304.81 1477.06 2301.73 1481.67 Q2298.68 1486.25 2292.87 1486.25 Q2287.06 1486.25 2283.98 1481.67 Q2280.92 1477.06 2280.92 1468.33 Q2280.92 1459.58 2283.98 1455 Q2287.06 1450.39 2292.87 1450.39 Z" fill="#000000" fill-rule="evenodd" fill-opacity="1" /><path clip-path="url(#clip270)" d="M2323.03 1454.1 Q2319.42 1454.1 2317.59 1457.66 Q2315.79 1461.2 2315.79 1468.33 Q2315.79 1475.44 2317.59 1479.01 Q2319.42 1482.55 2323.03 1482.55 Q2326.66 1482.55 2328.47 1479.01 Q2330.3 1475.44 2330.3 1468.33 Q2330.3 1461.2 2328.47 1457.66 Q2326.66 1454.1 2323.03 1454.1 M2323.03 1450.39 Q2328.84 1450.39 2331.9 1455 Q2334.97 1459.58 2334.97 1468.33 Q2334.97 1477.06 2331.9 1481.67 Q2328.84 1486.25 2323.03 1486.25 Q2317.22 1486.25 2314.14 1481.67 Q2311.09 1477.06 2311.09 1468.33 Q2311.09 1459.58 2314.14 1455 Q2317.22 1450.39 2323.03 1450.39 Z" fill="#000000" fill-rule="evenodd" fill-opacity="1" /><path clip-path="url(#clip270)" d="M885.568 1572.37 L885.568 1559.17 Q885.568 1558.43 885.601 1558.17 Q885.633 1557.91 885.826 1557.72 Q886.019 1557.52 886.406 1557.52 Q887.146 1557.52 887.211 1558.2 Q887.404 1564.74 891.301 1568.35 Q895.134 1571.92 901.704 1571.92 Q905.665 1571.92 908.112 1569.09 Q910.56 1566.22 910.56 1562.48 Q910.56 1558.91 908.499 1556.4 Q907.629 1555.27 906.534 1554.56 Q905.472 1553.82 904.795 1553.59 Q904.151 1553.37 902.895 1553.05 Q894.715 1551.08 894.2 1550.86 Q890.303 1549.54 887.919 1546.22 Q885.568 1542.87 885.568 1538.78 Q885.568 1533.5 889.272 1529.76 Q893.008 1525.99 898.419 1525.99 Q901.124 1525.99 903.378 1526.86 Q905.665 1527.7 906.599 1528.47 Q907.533 1529.25 908.982 1530.63 L911.269 1526.86 Q911.784 1525.99 912.267 1525.99 Q912.782 1525.99 912.879 1526.32 Q913.008 1526.61 913.008 1527.57 L913.008 1540.84 Q913.008 1541.58 912.976 1541.84 Q912.943 1542.1 912.718 1542.26 Q912.525 1542.42 912.138 1542.42 Q911.494 1542.42 911.333 1541.65 Q909.497 1527.86 898.483 1527.86 Q894.715 1527.86 892.235 1530.41 Q889.787 1532.92 889.787 1536.49 Q889.787 1539.39 891.591 1541.78 Q893.394 1544.13 896.454 1544.87 L904.892 1546.9 Q909.111 1547.89 911.945 1551.63 Q914.779 1555.37 914.779 1560.23 Q914.779 1565.83 911.108 1569.89 Q907.468 1573.95 901.768 1573.95 Q897.678 1573.95 894.522 1572.6 Q891.365 1571.24 889.659 1569.34 Q888.338 1571.53 887.469 1572.76 L887.275 1573.08 Q886.76 1573.95 886.277 1573.95 Q885.762 1573.95 885.665 1573.63 Q885.568 1573.3 885.568 1572.37 Z" fill="#000000" fill-rule="evenodd" fill-opacity="1" /><path clip-path="url(#clip270)" d="M925.765 1566.22 Q925.765 1560.62 932.367 1557.65 Q936.329 1555.75 944.509 1555.27 L944.509 1552.85 Q944.509 1548.76 942.351 1546.61 Q940.226 1544.42 937.52 1544.42 Q932.689 1544.42 930.371 1547.44 Q932.335 1547.51 933.044 1548.51 Q933.752 1549.47 933.752 1550.47 Q933.752 1551.79 932.915 1552.66 Q932.11 1553.5 930.725 1553.5 Q929.404 1553.5 928.535 1552.69 Q927.665 1551.86 927.665 1550.41 Q927.665 1547.19 930.564 1545.06 Q933.494 1542.93 937.649 1542.93 Q943.06 1542.93 946.667 1546.57 Q947.794 1547.7 948.341 1549.15 Q948.921 1550.6 948.986 1551.57 Q949.05 1552.5 949.05 1554.37 L949.05 1567.54 Q949.05 1567.93 949.179 1568.57 Q949.308 1569.21 949.887 1570.05 Q950.499 1570.86 951.498 1570.86 Q953.881 1570.86 953.849 1566.64 L953.849 1562.93 L955.523 1562.93 L955.523 1566.64 Q955.523 1570.15 953.655 1571.53 Q951.82 1572.89 950.113 1572.89 Q947.923 1572.89 946.538 1571.28 Q945.153 1569.67 944.96 1567.48 Q943.961 1569.99 941.675 1571.63 Q939.42 1573.24 936.329 1573.24 Q933.945 1573.24 931.691 1572.63 Q929.469 1572.05 927.601 1570.41 Q925.765 1568.73 925.765 1566.22 M930.854 1566.16 Q930.854 1568.6 932.593 1570.18 Q934.332 1571.76 936.779 1571.76 Q939.549 1571.76 942.029 1569.63 Q944.509 1567.48 944.509 1563.26 L944.509 1556.65 Q937.198 1556.91 934.01 1559.84 Q930.854 1562.74 930.854 1566.16 Z" fill="#000000" fill-rule="evenodd" fill-opacity="1" /><path clip-path="url(#clip270)" d="M956.845 1572.5 L956.845 1570.47 Q960.356 1570.47 961.161 1570.05 Q961.966 1569.6 961.966 1567.48 L961.966 1549.79 Q961.966 1547.35 961.096 1546.74 Q960.259 1546.12 956.845 1546.12 L956.845 1544.06 L966.12 1543.35 L966.12 1550.28 Q969.212 1543.35 975.879 1543.35 Q983.608 1543.35 984.671 1549.79 Q985.798 1547.28 988.149 1545.32 Q990.532 1543.35 994.236 1543.35 Q999.196 1543.35 1001.16 1545.8 Q1002.61 1547.44 1002.9 1549.28 Q1003.19 1551.12 1003.19 1555.88 L1003.19 1568.47 Q1003.25 1569.86 1004.32 1570.18 Q1005.38 1570.47 1008.34 1570.47 L1008.34 1572.5 Q1001.61 1572.31 1000.97 1572.31 Q1000.45 1572.31 993.495 1572.5 L993.495 1570.47 Q997.006 1570.47 997.811 1570.05 Q998.648 1569.6 998.648 1567.48 L998.648 1552.11 Q998.648 1548.76 997.618 1546.8 Q996.587 1544.8 993.753 1544.8 Q990.339 1544.8 987.602 1547.67 Q984.864 1550.54 984.864 1555.37 L984.864 1567.48 Q984.864 1569.6 985.669 1570.05 Q986.507 1570.47 990.017 1570.47 L990.017 1572.5 Q983.286 1572.31 982.61 1572.31 Q982.095 1572.31 975.17 1572.5 L975.17 1570.47 Q978.681 1570.47 979.486 1570.05 Q980.323 1569.6 980.323 1567.48 L980.323 1552.11 Q980.323 1548.76 979.293 1546.8 Q978.262 1544.8 975.428 1544.8 Q972.014 1544.8 969.277 1547.67 Q966.539 1550.54 966.539 1555.37 L966.539 1567.48 Q966.539 1569.6 967.344 1570.05 Q968.182 1570.47 971.66 1570.47 L971.66 1572.5 Q964.929 1572.31 964.285 1572.31 Q963.769 1572.31 956.845 1572.5 Z" fill="#000000" fill-rule="evenodd" fill-opacity="1" /><path clip-path="url(#clip270)" d="M1008.26 1583.26 Q1011.77 1583.26 1012.57 1582.81 Q1013.41 1582.39 1013.41 1580.29 L1013.41 1549.41 Q1013.41 1547.22 1012.57 1546.67 Q1011.77 1546.12 1008.26 1546.12 L1008.26 1544.06 L1017.76 1543.35 L1017.76 1547.7 Q1021.72 1543.35 1027 1543.35 Q1032.61 1543.35 1036.7 1547.7 Q1040.79 1552.05 1040.79 1558.26 Q1040.79 1564.54 1036.44 1568.89 Q1032.09 1573.24 1026.07 1573.24 Q1022.78 1573.24 1020.56 1571.57 Q1018.37 1569.86 1017.95 1568.6 L1017.95 1569.21 L1017.95 1580.29 Q1017.95 1582.42 1018.79 1582.84 Q1019.63 1583.26 1023.1 1583.26 L1023.1 1585.29 Q1016.18 1585.09 1015.67 1585.09 Q1015.02 1585.09 1008.26 1585.29 L1008.26 1583.26 M1017.95 1565 Q1017.95 1565.99 1018.08 1566.35 Q1018.24 1566.7 1018.89 1567.77 Q1021.49 1571.76 1025.75 1571.76 Q1025.78 1571.76 1025.81 1571.76 Q1029.58 1571.76 1032.44 1567.93 Q1035.31 1564.06 1035.31 1558.26 Q1035.31 1552.73 1032.7 1548.86 Q1030.09 1545 1026.49 1545 Q1023.91 1545 1021.66 1546.38 Q1019.4 1547.77 1017.95 1550.28 L1017.95 1565 Z" fill="#000000" fill-rule="evenodd" fill-opacity="1" /><path clip-path="url(#clip270)" d="M1049.77 1572.5 L1049.77 1570.47 Q1053.29 1570.47 1054.09 1570.05 Q1054.9 1569.6 1054.9 1567.48 L1054.9 1533.18 Q1054.9 1530.73 1054.03 1530.12 Q1053.19 1529.5 1049.77 1529.5 L1049.77 1527.44 L1059.24 1526.74 L1059.24 1567.48 Q1059.24 1569.6 1060.08 1570.05 Q1060.92 1570.47 1064.4 1570.47 L1064.4 1572.5 Q1063.59 1572.5 1061.92 1572.44 Q1060.24 1572.37 1059.02 1572.34 Q1057.79 1572.31 1057.09 1572.31 Q1056.31 1572.31 1049.77 1572.5 Z" fill="#000000" fill-rule="evenodd" fill-opacity="1" /><path clip-path="url(#clip270)" d="M1067.33 1572.5 L1067.33 1570.47 Q1070.84 1570.47 1071.65 1570.05 Q1072.45 1569.6 1072.45 1567.48 L1072.45 1549.73 Q1072.45 1547.28 1071.62 1546.7 Q1070.81 1546.12 1067.59 1546.12 L1067.59 1544.06 L1076.8 1543.35 L1076.8 1567.54 Q1076.8 1569.5 1077.51 1569.99 Q1078.22 1570.47 1081.44 1570.47 L1081.44 1572.5 Q1074.71 1572.31 1074.58 1572.31 Q1073.68 1572.31 1067.33 1572.5 M1070.1 1531.86 Q1070.1 1530.54 1071.1 1529.47 Q1072.13 1528.38 1073.58 1528.38 Q1075.03 1528.38 1076.06 1529.38 Q1077.09 1530.34 1077.09 1531.89 Q1077.09 1533.4 1076.06 1534.4 Q1075.03 1535.37 1073.58 1535.37 Q1072.07 1535.37 1071.07 1534.3 Q1070.1 1533.24 1070.1 1531.86 Z" fill="#000000" fill-rule="evenodd" fill-opacity="1" /><path clip-path="url(#clip270)" d="M1085.95 1572.5 L1085.95 1570.47 Q1089.46 1570.47 1090.26 1570.05 Q1091.07 1569.6 1091.07 1567.48 L1091.07 1549.79 Q1091.07 1547.35 1090.2 1546.74 Q1089.36 1546.12 1085.95 1546.12 L1085.95 1544.06 L1095.22 1543.35 L1095.22 1550.28 Q1098.31 1543.35 1104.98 1543.35 Q1109.94 1543.35 1111.91 1545.8 Q1113.35 1547.44 1113.64 1549.28 Q1113.97 1551.12 1113.97 1555.88 L1113.97 1568.47 Q1114.03 1569.86 1115.09 1570.18 Q1116.16 1570.47 1119.12 1570.47 L1119.12 1572.5 Q1112.39 1572.31 1111.71 1572.31 Q1111.2 1572.31 1104.27 1572.5 L1104.27 1570.47 Q1107.78 1570.47 1108.59 1570.05 Q1109.43 1569.6 1109.43 1567.48 L1109.43 1552.11 Q1109.43 1548.76 1108.4 1546.8 Q1107.36 1544.8 1104.53 1544.8 Q1101.12 1544.8 1098.38 1547.67 Q1095.64 1550.54 1095.64 1555.37 L1095.64 1567.48 Q1095.64 1569.6 1096.45 1570.05 Q1097.28 1570.47 1100.76 1570.47 L1100.76 1572.5 Q1094.03 1572.31 1093.39 1572.31 Q1092.87 1572.31 1085.95 1572.5 Z" fill="#000000" fill-rule="evenodd" fill-opacity="1" /><path clip-path="url(#clip270)" d="M1121.39 1577.72 Q1121.39 1575.59 1123 1573.76 Q1124.65 1571.92 1127.48 1571.11 Q1124.58 1569.28 1124.58 1565.25 Q1124.58 1562.16 1126.61 1559.78 Q1123.52 1557.2 1123.52 1552.98 Q1123.52 1549.09 1126.61 1546.22 Q1129.7 1543.35 1134.21 1543.35 Q1138.17 1543.35 1141.2 1545.74 Q1144.36 1542.64 1148.19 1542.61 Q1149.89 1542.61 1150.7 1543.68 Q1151.54 1544.74 1151.54 1545.87 Q1151.54 1546.86 1150.89 1547.35 Q1150.28 1547.83 1149.64 1547.83 Q1148.83 1547.83 1148.25 1547.31 Q1147.7 1546.77 1147.7 1545.93 Q1147.7 1544.55 1148.77 1544.13 Q1148.57 1544.06 1148.12 1544.06 Q1144.9 1544.06 1142.17 1546.64 Q1144.87 1549.15 1144.87 1553.05 Q1144.87 1556.94 1141.78 1559.81 Q1138.69 1562.68 1134.21 1562.68 Q1130.51 1562.68 1127.67 1560.62 Q1126.55 1561.94 1126.55 1563.74 Q1126.55 1565.38 1127.54 1566.67 Q1128.54 1567.96 1130.06 1568.15 Q1130.51 1568.22 1134.98 1568.22 Q1137.62 1568.22 1139.07 1568.28 Q1140.52 1568.35 1142.58 1568.8 Q1144.68 1569.21 1146.32 1570.05 Q1150.6 1572.44 1150.64 1577.59 Q1150.64 1581.36 1146.29 1583.71 Q1141.97 1586.09 1135.98 1586.09 Q1129.93 1586.09 1125.64 1583.68 Q1121.39 1581.29 1121.39 1577.72 M1124.84 1577.72 Q1124.84 1580.42 1128.03 1582.48 Q1131.22 1584.58 1136.05 1584.58 Q1140.78 1584.58 1143.97 1582.52 Q1147.19 1580.49 1147.19 1577.72 Q1147.19 1575.75 1146.06 1574.5 Q1144.93 1573.24 1142.62 1572.73 Q1140.33 1572.24 1138.72 1572.15 Q1137.11 1572.05 1134.15 1572.05 L1130.25 1572.05 Q1127.99 1572.18 1126.42 1573.82 Q1124.84 1575.46 1124.84 1577.72 M1128.45 1553.05 Q1128.45 1561.16 1134.21 1561.16 Q1137.11 1561.16 1138.88 1558.52 Q1139.94 1556.75 1139.94 1552.98 Q1139.94 1544.87 1134.21 1544.87 Q1131.31 1544.87 1129.51 1547.51 Q1128.45 1549.28 1128.45 1553.05 Z" fill="#000000" fill-rule="evenodd" fill-opacity="1" /><path clip-path="url(#clip270)" d="M1156.96 1572.5 L1156.96 1570.47 Q1160.47 1570.47 1161.28 1570.05 Q1162.08 1569.6 1162.08 1567.48 L1162.08 1549.73 Q1162.08 1547.28 1161.24 1546.7 Q1160.44 1546.12 1157.22 1546.12 L1157.22 1544.06 L1166.43 1543.35 L1166.43 1567.54 Q1166.43 1569.5 1167.14 1569.99 Q1167.85 1570.47 1171.07 1570.47 L1171.07 1572.5 Q1164.34 1572.31 1164.21 1572.31 Q1163.3 1572.31 1156.96 1572.5 M1159.73 1531.86 Q1159.73 1530.54 1160.73 1529.47 Q1161.76 1528.38 1163.21 1528.38 Q1164.66 1528.38 1165.69 1529.38 Q1166.72 1530.34 1166.72 1531.89 Q1166.72 1533.4 1165.69 1534.4 Q1164.66 1535.37 1163.21 1535.37 Q1161.69 1535.37 1160.7 1534.3 Q1159.73 1533.24 1159.73 1531.86 Z" fill="#000000" fill-rule="evenodd" fill-opacity="1" /><path clip-path="url(#clip270)" d="M1175.57 1572.5 L1175.57 1570.47 Q1179.09 1570.47 1179.89 1570.05 Q1180.7 1569.6 1180.7 1567.48 L1180.7 1549.79 Q1180.7 1547.35 1179.83 1546.74 Q1178.99 1546.12 1175.57 1546.12 L1175.57 1544.06 L1184.85 1543.35 L1184.85 1550.28 Q1187.94 1543.35 1194.61 1543.35 Q1199.57 1543.35 1201.53 1545.8 Q1202.98 1547.44 1203.27 1549.28 Q1203.59 1551.12 1203.59 1555.88 L1203.59 1568.47 Q1203.66 1569.86 1204.72 1570.18 Q1205.78 1570.47 1208.75 1570.47 L1208.75 1572.5 Q1202.02 1572.31 1201.34 1572.31 Q1200.82 1572.31 1193.9 1572.5 L1193.9 1570.47 Q1197.41 1570.47 1198.22 1570.05 Q1199.05 1569.6 1199.05 1567.48 L1199.05 1552.11 Q1199.05 1548.76 1198.02 1546.8 Q1196.99 1544.8 1194.16 1544.8 Q1190.74 1544.8 1188.01 1547.67 Q1185.27 1550.54 1185.27 1555.37 L1185.27 1567.48 Q1185.27 1569.6 1186.07 1570.05 Q1186.91 1570.47 1190.39 1570.47 L1190.39 1572.5 Q1183.66 1572.31 1183.01 1572.31 Q1182.5 1572.31 1175.57 1572.5 Z" fill="#000000" fill-rule="evenodd" fill-opacity="1" /><path clip-path="url(#clip270)" d="M1212.08 1546.12 L1212.08 1544.67 Q1215.1 1544.55 1217.1 1542.42 Q1219.13 1540.26 1219.8 1537.62 Q1220.51 1534.98 1220.58 1531.92 L1222.22 1531.92 L1222.22 1544.06 L1231.66 1544.06 L1231.66 1546.12 L1222.22 1546.12 L1222.22 1564.45 Q1222.22 1571.57 1226.66 1571.57 Q1228.56 1571.57 1229.82 1569.63 Q1231.08 1567.67 1231.08 1564.19 L1231.08 1560.55 L1232.72 1560.55 L1232.72 1564.32 Q1232.72 1567.89 1231.08 1570.57 Q1229.43 1573.24 1226.18 1573.24 Q1224.99 1573.24 1223.8 1572.92 Q1222.64 1572.63 1221.09 1571.86 Q1219.58 1571.05 1218.61 1569.12 Q1217.68 1567.15 1217.68 1564.32 L1217.68 1546.12 L1212.08 1546.12 Z" fill="#000000" fill-rule="evenodd" fill-opacity="1" /><path clip-path="url(#clip270)" d="M1235.81 1557.97 Q1235.81 1551.76 1239.8 1547.35 Q1243.79 1542.93 1249.53 1542.93 Q1255.32 1542.93 1258.32 1546.7 Q1261.35 1550.47 1261.35 1555.88 Q1261.35 1556.88 1261.09 1557.07 Q1260.83 1557.27 1259.7 1557.27 L1241.28 1557.27 Q1241.28 1564 1243.28 1567.15 Q1246.05 1571.57 1250.72 1571.57 Q1251.36 1571.57 1252.13 1571.44 Q1252.91 1571.31 1254.49 1570.76 Q1256.06 1570.18 1257.45 1568.67 Q1258.83 1567.15 1259.64 1564.77 Q1259.83 1563.84 1260.48 1563.87 Q1261.35 1563.87 1261.35 1564.64 Q1261.35 1565.22 1260.7 1566.54 Q1260.09 1567.83 1258.9 1569.38 Q1257.71 1570.92 1255.39 1572.08 Q1253.1 1573.24 1250.33 1573.24 Q1244.53 1573.24 1240.15 1568.86 Q1235.81 1564.45 1235.81 1557.97 M1241.35 1555.88 L1257 1555.88 Q1257 1554.5 1256.74 1552.95 Q1256.51 1551.4 1255.81 1549.28 Q1255.13 1547.12 1253.52 1545.77 Q1251.91 1544.42 1249.53 1544.42 Q1248.46 1544.42 1247.3 1544.87 Q1246.18 1545.32 1244.79 1546.41 Q1243.41 1547.51 1242.44 1549.99 Q1241.47 1552.47 1241.35 1555.88 Z" fill="#000000" fill-rule="evenodd" fill-opacity="1" /><path clip-path="url(#clip270)" d="M1263.48 1572.5 L1263.48 1570.47 Q1266.99 1570.47 1267.8 1570.05 Q1268.63 1569.6 1268.63 1567.48 L1268.63 1549.79 Q1268.63 1547.35 1267.77 1546.74 Q1266.93 1546.12 1263.48 1546.12 L1263.48 1544.06 L1272.66 1543.35 L1272.66 1550.6 Q1273.59 1547.77 1275.56 1545.58 Q1277.56 1543.35 1280.78 1543.35 Q1282.9 1543.35 1284.25 1544.55 Q1285.64 1545.74 1285.64 1547.38 Q1285.64 1548.83 1284.74 1549.57 Q1283.87 1550.28 1282.81 1550.28 Q1281.61 1550.28 1280.78 1549.54 Q1279.97 1548.76 1279.97 1547.44 Q1279.97 1546.64 1280.33 1546.03 Q1280.71 1545.38 1281 1545.16 Q1281.29 1544.93 1281.48 1544.87 Q1281.36 1544.8 1280.78 1544.8 Q1277.14 1544.8 1275.04 1548.44 Q1272.98 1552.05 1272.98 1557.2 L1272.98 1567.35 Q1272.98 1569.25 1273.76 1569.86 Q1274.56 1570.47 1278.01 1570.47 L1279.39 1570.47 L1279.39 1572.5 Q1276.75 1572.31 1271.02 1572.31 Q1270.21 1572.31 1268.96 1572.34 Q1267.7 1572.37 1266.06 1572.44 Q1264.42 1572.5 1263.48 1572.5 Z" fill="#000000" fill-rule="evenodd" fill-opacity="1" /><path clip-path="url(#clip270)" d="M1292.49 1546.12 L1292.49 1544.06 Q1295.45 1544.26 1298.9 1544.26 Q1300.15 1544.26 1306.08 1544.06 L1306.08 1546.12 Q1302.31 1546.12 1302.31 1547.83 Q1302.31 1548.09 1302.7 1548.96 L1310.1 1567.35 L1316.84 1550.54 Q1317.22 1549.41 1317.22 1548.96 Q1317.22 1547.83 1316.45 1547.02 Q1315.71 1546.19 1314.07 1546.12 L1314.07 1544.06 Q1317.41 1544.26 1319.8 1544.26 Q1322.5 1544.26 1324.73 1544.06 L1324.73 1546.12 Q1322.76 1546.12 1321.38 1547.02 Q1319.99 1547.89 1319.54 1548.67 Q1319.12 1549.41 1318.67 1550.54 L1310.04 1571.98 Q1309.52 1573.24 1308.65 1573.24 Q1308.08 1573.24 1307.82 1572.98 Q1307.59 1572.76 1307.27 1571.98 L1297.77 1548.57 Q1297.13 1546.93 1296.29 1546.54 Q1295.45 1546.12 1292.49 1546.12 Z" fill="#000000" fill-rule="evenodd" fill-opacity="1" /><path clip-path="url(#clip270)" d="M1330.23 1566.22 Q1330.23 1560.62 1336.83 1557.65 Q1340.79 1555.75 1348.97 1555.27 L1348.97 1552.85 Q1348.97 1548.76 1346.81 1546.61 Q1344.69 1544.42 1341.98 1544.42 Q1337.15 1544.42 1334.83 1547.44 Q1336.8 1547.51 1337.51 1548.51 Q1338.21 1549.47 1338.21 1550.47 Q1338.21 1551.79 1337.38 1552.66 Q1336.57 1553.5 1335.19 1553.5 Q1333.87 1553.5 1333 1552.69 Q1332.13 1551.86 1332.13 1550.41 Q1332.13 1547.19 1335.03 1545.06 Q1337.96 1542.93 1342.11 1542.93 Q1347.52 1542.93 1351.13 1546.57 Q1352.26 1547.7 1352.8 1549.15 Q1353.38 1550.6 1353.45 1551.57 Q1353.51 1552.5 1353.51 1554.37 L1353.51 1567.54 Q1353.51 1567.93 1353.64 1568.57 Q1353.77 1569.21 1354.35 1570.05 Q1354.96 1570.86 1355.96 1570.86 Q1358.34 1570.86 1358.31 1566.64 L1358.31 1562.93 L1359.99 1562.93 L1359.99 1566.64 Q1359.99 1570.15 1358.12 1571.53 Q1356.28 1572.89 1354.57 1572.89 Q1352.38 1572.89 1351 1571.28 Q1349.61 1569.67 1349.42 1567.48 Q1348.42 1569.99 1346.14 1571.63 Q1343.88 1573.24 1340.79 1573.24 Q1338.41 1573.24 1336.15 1572.63 Q1333.93 1572.05 1332.06 1570.41 Q1330.23 1568.73 1330.23 1566.22 M1335.32 1566.16 Q1335.32 1568.6 1337.05 1570.18 Q1338.79 1571.76 1341.24 1571.76 Q1344.01 1571.76 1346.49 1569.63 Q1348.97 1567.48 1348.97 1563.26 L1348.97 1556.65 Q1341.66 1556.91 1338.47 1559.84 Q1335.32 1562.74 1335.32 1566.16 Z" fill="#000000" fill-rule="evenodd" fill-opacity="1" /><path clip-path="url(#clip270)" d="M1362.63 1572.5 L1362.63 1570.47 Q1366.14 1570.47 1366.94 1570.05 Q1367.75 1569.6 1367.75 1567.48 L1367.75 1533.18 Q1367.75 1530.73 1366.88 1530.12 Q1366.04 1529.5 1362.63 1529.5 L1362.63 1527.44 L1372.1 1526.74 L1372.1 1567.48 Q1372.1 1569.6 1372.93 1570.05 Q1373.77 1570.47 1377.25 1570.47 L1377.25 1572.5 Q1376.44 1572.5 1374.77 1572.44 Q1373.09 1572.37 1371.87 1572.34 Q1370.65 1572.31 1369.94 1572.31 Q1369.16 1572.31 1362.63 1572.5 Z" fill="#000000" fill-rule="evenodd" fill-opacity="1" /><path clip-path="url(#clip270)" d="M1385.2 1556.01 Q1385.2 1544.87 1389.36 1535.88 Q1391.13 1532.11 1393.61 1528.96 Q1396.09 1525.8 1397.73 1524.42 Q1399.37 1523.03 1399.82 1523.03 Q1400.47 1523.03 1400.5 1523.68 Q1400.5 1524 1399.63 1524.8 Q1389 1535.62 1389.03 1556.01 Q1389.03 1576.46 1399.37 1586.86 Q1400.5 1587.99 1400.5 1588.35 Q1400.5 1588.99 1399.82 1588.99 Q1399.37 1588.99 1397.79 1587.67 Q1396.22 1586.35 1393.77 1583.32 Q1391.32 1580.29 1389.55 1576.59 Q1385.2 1567.6 1385.2 1556.01 Z" fill="#000000" fill-rule="evenodd" fill-opacity="1" /><path clip-path="url(#clip270)" d="M1406.83 1557.97 Q1406.83 1551.76 1410.83 1547.35 Q1414.82 1542.93 1420.55 1542.93 Q1426.35 1542.93 1429.34 1546.7 Q1432.37 1550.47 1432.37 1555.88 Q1432.37 1556.88 1432.11 1557.07 Q1431.86 1557.27 1430.73 1557.27 L1412.31 1557.27 Q1412.31 1564 1414.3 1567.15 Q1417.07 1571.57 1421.74 1571.57 Q1422.39 1571.57 1423.16 1571.44 Q1423.93 1571.31 1425.51 1570.76 Q1427.09 1570.18 1428.48 1568.67 Q1429.86 1567.15 1430.67 1564.77 Q1430.86 1563.84 1431.5 1563.87 Q1432.37 1563.87 1432.37 1564.64 Q1432.37 1565.22 1431.73 1566.54 Q1431.12 1567.83 1429.92 1569.38 Q1428.73 1570.92 1426.41 1572.08 Q1424.13 1573.24 1421.36 1573.24 Q1415.56 1573.24 1411.18 1568.86 Q1406.83 1564.45 1406.83 1557.97 M1412.37 1555.88 L1428.02 1555.88 Q1428.02 1554.5 1427.77 1552.95 Q1427.54 1551.4 1426.83 1549.28 Q1426.16 1547.12 1424.55 1545.77 Q1422.94 1544.42 1420.55 1544.42 Q1419.49 1544.42 1418.33 1544.87 Q1417.2 1545.32 1415.82 1546.41 Q1414.43 1547.51 1413.47 1549.99 Q1412.5 1552.47 1412.37 1555.88 Z" fill="#000000" fill-rule="evenodd" fill-opacity="1" /><path clip-path="url(#clip270)" d="M1433.26 1546.12 L1433.26 1544.06 Q1436.22 1544.26 1439.67 1544.26 Q1440.92 1544.26 1446.85 1544.06 L1446.85 1546.12 Q1443.08 1546.12 1443.08 1547.83 Q1443.08 1548.09 1443.47 1548.96 L1450.88 1567.35 L1457.61 1550.54 Q1457.99 1549.41 1457.99 1548.96 Q1457.99 1547.83 1457.22 1547.02 Q1456.48 1546.19 1454.84 1546.12 L1454.84 1544.06 Q1458.19 1544.26 1460.57 1544.26 Q1463.27 1544.26 1465.5 1544.06 L1465.5 1546.12 Q1463.53 1546.12 1462.15 1547.02 Q1460.76 1547.89 1460.31 1548.67 Q1459.89 1549.41 1459.44 1550.54 L1450.81 1571.98 Q1450.3 1573.24 1449.43 1573.24 Q1448.85 1573.24 1448.59 1572.98 Q1448.36 1572.76 1448.04 1571.98 L1438.54 1548.57 Q1437.9 1546.93 1437.06 1546.54 Q1436.22 1546.12 1433.26 1546.12 Z" fill="#000000" fill-rule="evenodd" fill-opacity="1" /><path clip-path="url(#clip270)" d="M1469.57 1557.97 Q1469.57 1551.76 1473.56 1547.35 Q1477.55 1542.93 1483.29 1542.93 Q1489.08 1542.93 1492.08 1546.7 Q1495.11 1550.47 1495.11 1555.88 Q1495.11 1556.88 1494.85 1557.07 Q1494.59 1557.27 1493.46 1557.27 L1475.04 1557.27 Q1475.04 1564 1477.04 1567.15 Q1479.81 1571.57 1484.48 1571.57 Q1485.12 1571.57 1485.9 1571.44 Q1486.67 1571.31 1488.25 1570.76 Q1489.82 1570.18 1491.21 1568.67 Q1492.59 1567.15 1493.4 1564.77 Q1493.59 1563.84 1494.24 1563.87 Q1495.11 1563.87 1495.11 1564.64 Q1495.11 1565.22 1494.46 1566.54 Q1493.85 1567.83 1492.66 1569.38 Q1491.47 1570.92 1489.15 1572.08 Q1486.86 1573.24 1484.09 1573.24 Q1478.29 1573.24 1473.91 1568.86 Q1469.57 1564.45 1469.57 1557.97 M1475.11 1555.88 L1490.76 1555.88 Q1490.76 1554.5 1490.5 1552.95 Q1490.28 1551.4 1489.57 1549.28 Q1488.89 1547.12 1487.28 1545.77 Q1485.67 1544.42 1483.29 1544.42 Q1482.22 1544.42 1481.06 1544.87 Q1479.94 1545.32 1478.55 1546.41 Q1477.17 1547.51 1476.2 1549.99 Q1475.24 1552.47 1475.11 1555.88 Z" fill="#000000" fill-rule="evenodd" fill-opacity="1" /><path clip-path="url(#clip270)" d="M1497.24 1572.5 L1497.24 1570.47 Q1500.75 1570.47 1501.56 1570.05 Q1502.36 1569.6 1502.36 1567.48 L1502.36 1549.79 Q1502.36 1547.35 1501.49 1546.74 Q1500.66 1546.12 1497.24 1546.12 L1497.24 1544.06 L1506.52 1543.35 L1506.52 1550.28 Q1509.61 1543.35 1516.28 1543.35 Q1521.24 1543.35 1523.2 1545.8 Q1524.65 1547.44 1524.94 1549.28 Q1525.26 1551.12 1525.26 1555.88 L1525.26 1568.47 Q1525.33 1569.86 1526.39 1570.18 Q1527.45 1570.47 1530.41 1570.47 L1530.41 1572.5 Q1523.68 1572.31 1523.01 1572.31 Q1522.49 1572.31 1515.57 1572.5 L1515.57 1570.47 Q1519.08 1570.47 1519.88 1570.05 Q1520.72 1569.6 1520.72 1567.48 L1520.72 1552.11 Q1520.72 1548.76 1519.69 1546.8 Q1518.66 1544.8 1515.83 1544.8 Q1512.41 1544.8 1509.67 1547.67 Q1506.94 1550.54 1506.94 1555.37 L1506.94 1567.48 Q1506.94 1569.6 1507.74 1570.05 Q1508.58 1570.47 1512.06 1570.47 L1512.06 1572.5 Q1505.33 1572.31 1504.68 1572.31 Q1504.17 1572.31 1497.24 1572.5 Z" fill="#000000" fill-rule="evenodd" fill-opacity="1" /><path clip-path="url(#clip270)" d="M1533.74 1546.12 L1533.74 1544.67 Q1536.77 1544.55 1538.77 1542.42 Q1540.8 1540.26 1541.47 1537.62 Q1542.18 1534.98 1542.25 1531.92 L1543.89 1531.92 L1543.89 1544.06 L1553.32 1544.06 L1553.32 1546.12 L1543.89 1546.12 L1543.89 1564.45 Q1543.89 1571.57 1548.33 1571.57 Q1550.23 1571.57 1551.49 1569.63 Q1552.74 1567.67 1552.74 1564.19 L1552.74 1560.55 L1554.39 1560.55 L1554.39 1564.32 Q1554.39 1567.89 1552.74 1570.57 Q1551.1 1573.24 1547.85 1573.24 Q1546.66 1573.24 1545.47 1572.92 Q1544.31 1572.63 1542.76 1571.86 Q1541.25 1571.05 1540.28 1569.12 Q1539.35 1567.15 1539.35 1564.32 L1539.35 1546.12 L1533.74 1546.12 Z" fill="#000000" fill-rule="evenodd" fill-opacity="1" /><path clip-path="url(#clip270)" d="M1558.28 1546.12 L1558.28 1544.67 Q1561.31 1544.55 1563.3 1542.42 Q1565.33 1540.26 1566.01 1537.62 Q1566.72 1534.98 1566.78 1531.92 L1568.42 1531.92 L1568.42 1544.06 L1577.86 1544.06 L1577.86 1546.12 L1568.42 1546.12 L1568.42 1564.45 Q1568.42 1571.57 1572.87 1571.57 Q1574.77 1571.57 1576.02 1569.63 Q1577.28 1567.67 1577.28 1564.19 L1577.28 1560.55 L1578.92 1560.55 L1578.92 1564.32 Q1578.92 1567.89 1577.28 1570.57 Q1575.64 1573.24 1572.39 1573.24 Q1571.19 1573.24 1570 1572.92 Q1568.84 1572.63 1567.3 1571.86 Q1565.78 1571.05 1564.82 1569.12 Q1563.88 1567.15 1563.88 1564.32 L1563.88 1546.12 L1558.28 1546.12 Z" fill="#000000" fill-rule="evenodd" fill-opacity="1" /><path clip-path="url(#clip270)" d="M1582.81 1572.5 L1582.81 1570.47 Q1586.32 1570.47 1587.13 1570.05 Q1587.94 1569.6 1587.94 1567.48 L1587.94 1549.73 Q1587.94 1547.28 1587.1 1546.7 Q1586.29 1546.12 1583.07 1546.12 L1583.07 1544.06 L1592.28 1543.35 L1592.28 1567.54 Q1592.28 1569.5 1592.99 1569.99 Q1593.7 1570.47 1596.92 1570.47 L1596.92 1572.5 Q1590.19 1572.31 1590.06 1572.31 Q1589.16 1572.31 1582.81 1572.5 M1585.58 1531.86 Q1585.58 1530.54 1586.58 1529.47 Q1587.61 1528.38 1589.06 1528.38 Q1590.51 1528.38 1591.54 1529.38 Q1592.57 1530.34 1592.57 1531.89 Q1592.57 1533.4 1591.54 1534.4 Q1590.51 1535.37 1589.06 1535.37 Q1587.55 1535.37 1586.55 1534.3 Q1585.58 1533.24 1585.58 1531.86 Z" fill="#000000" fill-rule="evenodd" fill-opacity="1" /><path clip-path="url(#clip270)" d="M1601.43 1572.5 L1601.43 1570.47 Q1604.94 1570.47 1605.74 1570.05 Q1606.55 1569.6 1606.55 1567.48 L1606.55 1549.79 Q1606.55 1547.35 1605.68 1546.74 Q1604.84 1546.12 1601.43 1546.12 L1601.43 1544.06 L1610.7 1543.35 L1610.7 1550.28 Q1613.8 1543.35 1620.46 1543.35 Q1628.19 1543.35 1629.25 1549.79 Q1630.38 1547.28 1632.73 1545.32 Q1635.12 1543.35 1638.82 1543.35 Q1643.78 1543.35 1645.74 1545.8 Q1647.19 1547.44 1647.48 1549.28 Q1647.77 1551.12 1647.77 1555.88 L1647.77 1568.47 Q1647.84 1569.86 1648.9 1570.18 Q1649.96 1570.47 1652.93 1570.47 L1652.93 1572.5 Q1646.19 1572.31 1645.55 1572.31 Q1645.04 1572.31 1638.08 1572.5 L1638.08 1570.47 Q1641.59 1570.47 1642.39 1570.05 Q1643.23 1569.6 1643.23 1567.48 L1643.23 1552.11 Q1643.23 1548.76 1642.2 1546.8 Q1641.17 1544.8 1638.34 1544.8 Q1634.92 1544.8 1632.19 1547.67 Q1629.45 1550.54 1629.45 1555.37 L1629.45 1567.48 Q1629.45 1569.6 1630.25 1570.05 Q1631.09 1570.47 1634.6 1570.47 L1634.6 1572.5 Q1627.87 1572.31 1627.19 1572.31 Q1626.68 1572.31 1619.75 1572.5 L1619.75 1570.47 Q1623.26 1570.47 1624.07 1570.05 Q1624.91 1569.6 1624.91 1567.48 L1624.91 1552.11 Q1624.91 1548.76 1623.88 1546.8 Q1622.85 1544.8 1620.01 1544.8 Q1616.6 1544.8 1613.86 1547.67 Q1611.12 1550.54 1611.12 1555.37 L1611.12 1567.48 Q1611.12 1569.6 1611.93 1570.05 Q1612.77 1570.47 1616.24 1570.47 L1616.24 1572.5 Q1609.51 1572.31 1608.87 1572.31 Q1608.35 1572.31 1601.43 1572.5 Z" fill="#000000" fill-rule="evenodd" fill-opacity="1" /><path clip-path="url(#clip270)" d="M1656.87 1557.97 Q1656.87 1551.76 1660.87 1547.35 Q1664.86 1542.93 1670.59 1542.93 Q1676.39 1542.93 1679.38 1546.7 Q1682.41 1550.47 1682.41 1555.88 Q1682.41 1556.88 1682.15 1557.07 Q1681.9 1557.27 1680.77 1557.27 L1662.35 1557.27 Q1662.35 1564 1664.34 1567.15 Q1667.11 1571.57 1671.78 1571.57 Q1672.43 1571.57 1673.2 1571.44 Q1673.97 1571.31 1675.55 1570.76 Q1677.13 1570.18 1678.51 1568.67 Q1679.9 1567.15 1680.7 1564.77 Q1680.9 1563.84 1681.54 1563.87 Q1682.41 1563.87 1682.41 1564.64 Q1682.41 1565.22 1681.77 1566.54 Q1681.15 1567.83 1679.96 1569.38 Q1678.77 1570.92 1676.45 1572.08 Q1674.17 1573.24 1671.4 1573.24 Q1665.6 1573.24 1661.22 1568.86 Q1656.87 1564.45 1656.87 1557.97 M1662.41 1555.88 L1678.06 1555.88 Q1678.06 1554.5 1677.81 1552.95 Q1677.58 1551.4 1676.87 1549.28 Q1676.2 1547.12 1674.58 1545.77 Q1672.97 1544.42 1670.59 1544.42 Q1669.53 1544.42 1668.37 1544.87 Q1667.24 1545.32 1665.86 1546.41 Q1664.47 1547.51 1663.51 1549.99 Q1662.54 1552.47 1662.41 1555.88 Z" fill="#000000" fill-rule="evenodd" fill-opacity="1" /><path clip-path="url(#clip270)" d="M1687.19 1588.35 Q1687.19 1588.02 1688.02 1587.22 Q1698.65 1576.4 1698.65 1556.01 Q1698.65 1535.56 1688.44 1525.22 Q1687.19 1524.03 1687.19 1523.68 Q1687.19 1523.03 1687.83 1523.03 Q1688.28 1523.03 1689.86 1524.35 Q1691.47 1525.67 1693.89 1528.7 Q1696.33 1531.73 1698.14 1535.43 Q1702.49 1544.42 1702.49 1556.01 Q1702.49 1567.15 1698.33 1576.14 Q1696.56 1579.91 1694.08 1583.06 Q1691.6 1586.22 1689.96 1587.6 Q1688.31 1588.99 1687.83 1588.99 Q1687.19 1588.99 1687.19 1588.35 Z" fill="#000000" fill-rule="evenodd" fill-opacity="1" /><polyline clip-path="url(#clip272)" style="stroke:#000000; stroke-linecap:butt; stroke-linejoin:round; stroke-width:2; stroke-opacity:0.1; fill:none" points="
  245.327,1423.18 2352.76,1423.18 
  "/>
<polyline clip-path="url(#clip272)" style="stroke:#000000; stroke-linecap:butt; stroke-linejoin:round; stroke-width:2; stroke-opacity:0.1; fill:none" points="
  245.327,1087.59 2352.76,1087.59 
  "/>
<polyline clip-path="url(#clip272)" style="stroke:#000000; stroke-linecap:butt; stroke-linejoin:round; stroke-width:2; stroke-opacity:0.1; fill:none" points="
  245.327,751.992 2352.76,751.992 
  "/>
<polyline clip-path="url(#clip272)" style="stroke:#000000; stroke-linecap:butt; stroke-linejoin:round; stroke-width:2; stroke-opacity:0.1; fill:none" points="
  245.327,416.398 2352.76,416.398 
  "/>
<polyline clip-path="url(#clip272)" style="stroke:#000000; stroke-linecap:butt; stroke-linejoin:round; stroke-width:2; stroke-opacity:0.1; fill:none" points="
  245.327,80.8035 2352.76,80.8035 
  "/>
<polyline clip-path="url(#clip270)" style="stroke:#000000; stroke-linecap:butt; stroke-linejoin:round; stroke-width:4; stroke-opacity:1; fill:none" points="
  245.327,1423.18 245.327,47.2441 
  "/>
<polyline clip-path="url(#clip270)" style="stroke:#000000; stroke-linecap:butt; stroke-linejoin:round; stroke-width:4; stroke-opacity:1; fill:none" points="
  245.327,1423.18 264.225,1423.18 
  "/>
<polyline clip-path="url(#clip270)" style="stroke:#000000; stroke-linecap:butt; stroke-linejoin:round; stroke-width:4; stroke-opacity:1; fill:none" points="
  245.327,1087.59 264.225,1087.59 
  "/>
<polyline clip-path="url(#clip270)" style="stroke:#000000; stroke-linecap:butt; stroke-linejoin:round; stroke-width:4; stroke-opacity:1; fill:none" points="
  245.327,751.992 264.225,751.992 
  "/>
<polyline clip-path="url(#clip270)" style="stroke:#000000; stroke-linecap:butt; stroke-linejoin:round; stroke-width:4; stroke-opacity:1; fill:none" points="
  245.327,416.398 264.225,416.398 
  "/>
<polyline clip-path="url(#clip270)" style="stroke:#000000; stroke-linecap:butt; stroke-linejoin:round; stroke-width:4; stroke-opacity:1; fill:none" points="
  245.327,80.8035 264.225,80.8035 
  "/>
<path clip-path="url(#clip270)" d="M152.152 1408.98 Q148.541 1408.98 146.712 1412.54 Q144.906 1416.08 144.906 1423.21 Q144.906 1430.32 146.712 1433.89 Q148.541 1437.43 152.152 1437.43 Q155.786 1437.43 157.591 1433.89 Q159.42 1430.32 159.42 1423.21 Q159.42 1416.08 157.591 1412.54 Q155.786 1408.98 152.152 1408.98 M152.152 1405.27 Q157.962 1405.27 161.017 1409.88 Q164.096 1414.46 164.096 1423.21 Q164.096 1431.94 161.017 1436.55 Q157.962 1441.13 152.152 1441.13 Q146.342 1441.13 143.263 1436.55 Q140.207 1431.94 140.207 1423.21 Q140.207 1414.46 143.263 1409.88 Q146.342 1405.27 152.152 1405.27 Z" fill="#000000" fill-rule="evenodd" fill-opacity="1" /><path clip-path="url(#clip270)" d="M172.314 1434.58 L177.198 1434.58 L177.198 1440.46 L172.314 1440.46 L172.314 1434.58 Z" fill="#000000" fill-rule="evenodd" fill-opacity="1" /><path clip-path="url(#clip270)" d="M197.383 1408.98 Q193.772 1408.98 191.943 1412.54 Q190.138 1416.08 190.138 1423.21 Q190.138 1430.32 191.943 1433.89 Q193.772 1437.43 197.383 1437.43 Q201.017 1437.43 202.823 1433.89 Q204.651 1430.32 204.651 1423.21 Q204.651 1416.08 202.823 1412.54 Q201.017 1408.98 197.383 1408.98 M197.383 1405.27 Q203.193 1405.27 206.249 1409.88 Q209.327 1414.46 209.327 1423.21 Q209.327 1431.94 206.249 1436.55 Q203.193 1441.13 197.383 1441.13 Q191.573 1441.13 188.494 1436.55 Q185.439 1431.94 185.439 1423.21 Q185.439 1414.46 188.494 1409.88 Q191.573 1405.27 197.383 1405.27 Z" fill="#000000" fill-rule="evenodd" fill-opacity="1" /><path clip-path="url(#clip270)" d="M153.749 1073.38 Q150.138 1073.38 148.309 1076.95 Q146.504 1080.49 146.504 1087.62 Q146.504 1094.73 148.309 1098.29 Q150.138 1101.83 153.749 1101.83 Q157.383 1101.83 159.189 1098.29 Q161.017 1094.73 161.017 1087.62 Q161.017 1080.49 159.189 1076.95 Q157.383 1073.38 153.749 1073.38 M153.749 1069.68 Q159.559 1069.68 162.615 1074.29 Q165.693 1078.87 165.693 1087.62 Q165.693 1096.35 162.615 1100.95 Q159.559 1105.54 153.749 1105.54 Q147.939 1105.54 144.86 1100.95 Q141.805 1096.35 141.805 1087.62 Q141.805 1078.87 144.86 1074.29 Q147.939 1069.68 153.749 1069.68 Z" fill="#000000" fill-rule="evenodd" fill-opacity="1" /><path clip-path="url(#clip270)" d="M173.911 1098.99 L178.795 1098.99 L178.795 1104.87 L173.911 1104.87 L173.911 1098.99 Z" fill="#000000" fill-rule="evenodd" fill-opacity="1" /><path clip-path="url(#clip270)" d="M193.008 1100.93 L209.327 1100.93 L209.327 1104.87 L187.383 1104.87 L187.383 1100.93 Q190.045 1098.18 194.628 1093.55 Q199.235 1088.89 200.415 1087.55 Q202.661 1085.03 203.54 1083.29 Q204.443 1081.53 204.443 1079.84 Q204.443 1077.09 202.499 1075.35 Q200.577 1073.62 197.476 1073.62 Q195.276 1073.62 192.823 1074.38 Q190.392 1075.14 187.614 1076.69 L187.614 1071.97 Q190.439 1070.84 192.892 1070.26 Q195.346 1069.68 197.383 1069.68 Q202.753 1069.68 205.948 1072.37 Q209.142 1075.05 209.142 1079.54 Q209.142 1081.67 208.332 1083.59 Q207.545 1085.49 205.438 1088.08 Q204.86 1088.75 201.758 1091.97 Q198.656 1095.17 193.008 1100.93 Z" fill="#000000" fill-rule="evenodd" fill-opacity="1" /><path clip-path="url(#clip270)" d="M151.666 737.79 Q148.054 737.79 146.226 741.355 Q144.42 744.897 144.42 752.026 Q144.42 759.133 146.226 762.698 Q148.054 766.239 151.666 766.239 Q155.3 766.239 157.105 762.698 Q158.934 759.133 158.934 752.026 Q158.934 744.897 157.105 741.355 Q155.3 737.79 151.666 737.79 M151.666 734.087 Q157.476 734.087 160.531 738.693 Q163.61 743.276 163.61 752.026 Q163.61 760.753 160.531 765.36 Q157.476 769.943 151.666 769.943 Q145.855 769.943 142.777 765.36 Q139.721 760.753 139.721 752.026 Q139.721 743.276 142.777 738.693 Q145.855 734.087 151.666 734.087 Z" fill="#000000" fill-rule="evenodd" fill-opacity="1" /><path clip-path="url(#clip270)" d="M171.828 763.392 L176.712 763.392 L176.712 769.272 L171.828 769.272 L171.828 763.392 Z" fill="#000000" fill-rule="evenodd" fill-opacity="1" /><path clip-path="url(#clip270)" d="M199.744 738.786 L187.939 757.235 L199.744 757.235 L199.744 738.786 M198.517 734.712 L204.397 734.712 L204.397 757.235 L209.327 757.235 L209.327 761.124 L204.397 761.124 L204.397 769.272 L199.744 769.272 L199.744 761.124 L184.142 761.124 L184.142 756.61 L198.517 734.712 Z" fill="#000000" fill-rule="evenodd" fill-opacity="1" /><path clip-path="url(#clip270)" d="M151.99 402.196 Q148.379 402.196 146.55 405.761 Q144.744 409.303 144.744 416.432 Q144.744 423.539 146.55 427.104 Q148.379 430.645 151.99 430.645 Q155.624 430.645 157.429 427.104 Q159.258 423.539 159.258 416.432 Q159.258 409.303 157.429 405.761 Q155.624 402.196 151.99 402.196 M151.99 398.493 Q157.8 398.493 160.855 403.099 Q163.934 407.682 163.934 416.432 Q163.934 425.159 160.855 429.766 Q157.8 434.349 151.99 434.349 Q146.179 434.349 143.101 429.766 Q140.045 425.159 140.045 416.432 Q140.045 407.682 143.101 403.099 Q146.179 398.493 151.99 398.493 Z" fill="#000000" fill-rule="evenodd" fill-opacity="1" /><path clip-path="url(#clip270)" d="M172.152 427.798 L177.036 427.798 L177.036 433.678 L172.152 433.678 L172.152 427.798 Z" fill="#000000" fill-rule="evenodd" fill-opacity="1" /><path clip-path="url(#clip270)" d="M197.8 414.534 Q194.651 414.534 192.8 416.687 Q190.971 418.84 190.971 422.59 Q190.971 426.317 192.8 428.492 Q194.651 430.645 197.8 430.645 Q200.948 430.645 202.776 428.492 Q204.628 426.317 204.628 422.59 Q204.628 418.84 202.776 416.687 Q200.948 414.534 197.8 414.534 M207.082 399.881 L207.082 404.141 Q205.323 403.307 203.517 402.868 Q201.735 402.428 199.976 402.428 Q195.346 402.428 192.892 405.553 Q190.462 408.678 190.114 414.997 Q191.48 412.983 193.54 411.918 Q195.601 410.83 198.077 410.83 Q203.286 410.83 206.295 414.002 Q209.327 417.15 209.327 422.59 Q209.327 427.914 206.179 431.131 Q203.031 434.349 197.8 434.349 Q191.804 434.349 188.633 429.766 Q185.462 425.159 185.462 416.432 Q185.462 408.238 189.351 403.377 Q193.239 398.493 199.79 398.493 Q201.55 398.493 203.332 398.84 Q205.138 399.187 207.082 399.881 Z" fill="#000000" fill-rule="evenodd" fill-opacity="1" /><path clip-path="url(#clip270)" d="M152.244 66.6022 Q148.633 66.6022 146.804 70.167 Q144.999 73.7086 144.999 80.8382 Q144.999 87.9447 146.804 91.5095 Q148.633 95.0511 152.244 95.0511 Q155.879 95.0511 157.684 91.5095 Q159.513 87.9447 159.513 80.8382 Q159.513 73.7086 157.684 70.167 Q155.879 66.6022 152.244 66.6022 M152.244 62.8985 Q158.054 62.8985 161.11 67.505 Q164.189 72.0883 164.189 80.8382 Q164.189 89.565 161.11 94.1715 Q158.054 98.7548 152.244 98.7548 Q146.434 98.7548 143.355 94.1715 Q140.3 89.565 140.3 80.8382 Q140.3 72.0883 143.355 67.505 Q146.434 62.8985 152.244 62.8985 Z" fill="#000000" fill-rule="evenodd" fill-opacity="1" /><path clip-path="url(#clip270)" d="M172.406 92.2039 L177.29 92.2039 L177.29 98.0835 L172.406 98.0835 L172.406 92.2039 Z" fill="#000000" fill-rule="evenodd" fill-opacity="1" /><path clip-path="url(#clip270)" d="M197.476 81.6716 Q194.142 81.6716 192.221 83.454 Q190.323 85.2363 190.323 88.3613 Q190.323 91.4863 192.221 93.2687 Q194.142 95.0511 197.476 95.0511 Q200.809 95.0511 202.73 93.2687 Q204.651 91.4632 204.651 88.3613 Q204.651 85.2363 202.73 83.454 Q200.832 81.6716 197.476 81.6716 M192.8 79.6808 Q189.79 78.9401 188.101 76.8799 Q186.434 74.8197 186.434 71.8568 Q186.434 67.7133 189.374 65.3059 Q192.337 62.8985 197.476 62.8985 Q202.638 62.8985 205.577 65.3059 Q208.517 67.7133 208.517 71.8568 Q208.517 74.8197 206.827 76.8799 Q205.161 78.9401 202.175 79.6808 Q205.554 80.4679 207.429 82.7595 Q209.327 85.0512 209.327 88.3613 Q209.327 93.3845 206.249 96.0696 Q203.193 98.7548 197.476 98.7548 Q191.758 98.7548 188.679 96.0696 Q185.624 93.3845 185.624 88.3613 Q185.624 85.0512 187.522 82.7595 Q189.42 80.4679 192.8 79.6808 M191.087 72.2966 Q191.087 74.9818 192.753 76.4864 Q194.443 77.991 197.476 77.991 Q200.485 77.991 202.175 76.4864 Q203.888 74.9818 203.888 72.2966 Q203.888 69.6114 202.175 68.1068 Q200.485 66.6022 197.476 66.6022 Q194.443 66.6022 192.753 68.1068 Q191.087 69.6114 191.087 72.2966 Z" fill="#000000" fill-rule="evenodd" fill-opacity="1" /><path clip-path="url(#clip270)" d="M34.5192 759.216 Q34.5643 759.216 34.6094 759.261 Q36.9991 759.554 38.3292 760.118 Q39.6367 760.681 40.2454 761.944 Q40.6963 762.868 40.6963 764.018 Q40.6963 765.754 39.5466 768.256 Q39.5015 768.346 39.276 768.842 Q39.0506 769.338 38.983 769.519 Q38.9153 769.699 38.7801 770.082 Q38.6223 770.466 38.5772 770.759 Q38.5321 771.052 38.5321 771.345 Q38.5321 771.976 38.8026 772.517 Q39.3437 773.622 40.1553 774.298 Q40.9443 774.997 42.3646 775.177 Q42.5449 775.222 42.6802 775.38 Q42.8155 775.538 42.8155 775.741 Q42.8155 775.944 42.6576 776.124 Q42.4998 776.305 42.2744 776.305 Q42.2293 776.305 42.1842 776.259 Q39.7945 775.966 38.487 775.403 Q37.1569 774.839 36.5482 773.577 Q36.0748 772.585 36.0748 771.503 Q36.0748 769.812 37.2471 767.242 Q37.2921 767.152 37.5176 766.656 Q37.743 766.16 37.8107 765.979 Q37.8783 765.799 38.0361 765.416 Q38.1714 765.032 38.2165 764.739 Q38.2615 764.446 38.2615 764.153 Q38.2615 763.59 37.9685 763.004 Q37.4274 761.899 36.6384 761.2 Q35.8493 760.501 34.429 760.321 Q34.2487 760.276 34.1134 760.118 Q33.9556 759.96 33.9556 759.757 Q33.9556 759.554 34.136 759.374 Q34.2938 759.216 34.5192 759.216 Z" fill="#000000" fill-rule="evenodd" fill-opacity="1" /><path clip-path="url(#clip270)" d="M60.5863 756.47 Q65.3527 756.47 69.8294 758.917 Q74.306 761.333 77.0113 765.133 Q79.7166 768.901 79.7166 772.701 Q79.7166 776.985 75.2722 779.207 Q91.4073 783.233 91.826 783.458 Q93.2108 784.392 93.2108 785.745 Q93.2108 786.582 92.6955 787.097 Q92.2124 787.613 91.4395 787.613 Q91.1818 787.581 90.3767 787.387 L64.451 780.946 Q58.4285 779.465 54.1451 774.988 Q49.8295 770.479 49.8295 765.648 Q49.8295 761.816 52.6958 759.143 Q55.5622 756.47 60.5863 756.47 M57.7522 761.204 Q54.5316 761.204 52.9213 762.492 Q51.2788 763.78 51.2788 765.777 Q51.2788 767.613 52.7603 769.835 Q54.2417 772.025 57.5267 773.957 Q59.4269 774.988 61.7779 775.729 Q64.1289 776.47 69.926 777.919 Q72.2448 778.434 72.3736 778.434 Q72.6313 778.434 73.211 778.305 Q73.7907 778.144 74.6924 777.758 Q75.562 777.339 76.3349 776.759 Q77.1079 776.18 77.6876 775.117 Q78.2351 774.054 78.2351 772.766 Q78.2351 770.769 76.6248 768.644 Q74.9823 766.486 71.9872 764.908 Q69.5717 763.587 65.0307 762.396 Q60.4575 761.204 57.7522 761.204 Z" fill="#000000" fill-rule="evenodd" fill-opacity="1" /><path clip-path="url(#clip270)" d="M112.26 748.724 Q112.08 748.724 110.908 748.115 Q109.713 747.507 105.452 745.365 Q101.169 743.223 96.6823 741.014 L80.676 733.056 Q79.6615 732.492 79.6615 731.771 Q79.6615 731.117 80.0673 730.824 Q80.4731 730.531 83.2009 729.178 Q84.531 728.479 85.3877 728.074 L111.516 715.02 Q112.08 714.795 112.26 714.773 Q112.711 714.773 112.711 715.562 L112.711 747.507 Q112.711 748.724 112.26 748.724 M109.194 745.68 L109.194 720.837 L84.2605 733.259 L109.194 745.68 Z" fill="#000000" fill-rule="evenodd" fill-opacity="1" /><path clip-path="url(#clip270)" d="M93.3232 697.212 Q93.9544 697.212 94.1123 697.505 Q94.2475 697.798 94.2475 698.61 L94.2475 702.938 L107.864 706.365 Q109.059 706.635 110.073 706.635 Q111.201 706.635 111.697 706.297 Q112.193 705.937 112.193 705.193 Q112.193 703.727 110.863 702.149 Q109.532 700.549 106.286 699.196 Q105.858 699.016 105.768 698.925 Q105.655 698.813 105.655 698.52 Q105.655 697.956 106.106 697.956 Q106.264 697.956 106.985 698.272 Q107.706 698.565 108.766 699.218 Q109.825 699.85 110.817 700.684 Q111.809 701.495 112.531 702.735 Q113.23 703.975 113.23 705.305 Q113.23 707.177 112.035 708.371 Q110.84 709.544 108.969 709.544 Q108.36 709.544 106.421 709.07 Q104.46 708.597 94.2475 706.027 L94.2475 710.107 Q94.2475 710.671 94.225 710.896 Q94.2024 711.099 94.0897 711.257 Q93.9544 711.392 93.6839 711.392 Q93.2556 711.392 93.0752 711.212 Q92.8723 711.032 92.8498 710.806 Q92.8047 710.558 92.8047 709.995 L92.8047 705.666 L85.4779 703.863 Q84.7564 703.682 84.3507 703.231 Q83.9223 702.758 83.8772 702.487 Q83.8096 702.217 83.8096 702.014 Q83.8096 701.405 84.1478 701.045 Q84.4634 700.684 85.0495 700.684 Q85.3651 700.684 92.8047 702.578 L92.8047 698.52 Q92.8047 698.001 92.8272 697.798 Q92.8498 697.573 92.9625 697.392 Q93.0752 697.212 93.3232 697.212 Z" fill="#000000" fill-rule="evenodd" fill-opacity="1" /><path clip-path="url(#clip270)" d="M5.12843 736.933 Q6.12038 736.933 6.86433 737.745 Q7.58574 738.534 7.58574 739.391 Q7.58574 740.18 7.11232 740.676 Q6.61635 741.149 5.91748 741.149 Q4.99317 741.149 4.22667 740.36 Q3.46017 739.571 3.46017 738.647 Q3.46017 737.88 3.9336 737.407 Q4.40702 736.933 5.12843 736.933 M27.3795 736.528 Q27.5598 736.528 28.2812 736.73 Q28.9801 736.933 30.0622 737.429 Q31.1218 737.903 32.1137 738.557 Q33.1057 739.21 33.8045 740.292 Q34.5034 741.352 34.5034 742.569 Q34.5034 744.215 33.4213 745.297 Q32.3392 746.357 30.716 746.357 Q29.8368 746.357 27.0188 745.297 Q18.8127 742.231 18.4745 742.119 Q17.1895 741.6 16.0623 741.6 Q15.5438 741.6 15.2282 741.713 Q14.89 741.825 14.7773 742.051 Q14.642 742.276 14.6195 742.412 Q14.597 742.524 14.597 742.75 Q14.597 744.08 15.9496 745.32 Q17.3023 746.56 20.3232 747.416 Q20.8868 747.597 21.022 747.709 Q21.1573 747.822 21.1573 748.16 Q21.1347 748.724 20.6839 748.724 Q20.5486 748.724 20.0301 748.566 Q19.489 748.408 18.6774 748.115 Q17.8433 747.822 16.9866 747.304 Q16.1074 746.785 15.3409 746.154 Q14.5744 745.5 14.0784 744.576 Q13.5825 743.652 13.5825 742.614 Q13.5825 740.924 14.6871 739.887 Q15.7693 738.827 17.3699 738.827 Q18.2491 738.827 19.8046 739.436 Q21.8336 740.18 22.4874 740.45 L27.3344 742.254 Q29.0928 742.908 29.6339 743.11 Q30.1524 743.291 30.7836 743.449 Q31.3923 743.584 31.9559 743.584 Q32.745 743.584 33.1057 743.336 Q33.4664 743.065 33.4664 742.479 Q33.4664 740.856 31.8657 739.661 Q30.2426 738.466 27.7627 737.767 Q27.6951 737.745 27.5824 737.722 Q27.0188 737.542 26.9511 737.362 Q26.9286 737.272 26.9286 737.091 Q26.9286 736.528 27.3795 736.528 Z" fill="#000000" fill-rule="evenodd" fill-opacity="1" /><path clip-path="url(#clip270)" d="M5.12843 721.101 Q6.05274 721.101 6.81924 721.89 Q7.58574 722.679 7.58574 723.603 Q7.58574 724.37 7.11232 724.843 Q6.63889 725.294 5.91748 725.294 Q4.92554 725.294 4.20413 724.505 Q3.46017 723.716 3.46017 722.859 Q3.46017 722.07 3.95614 721.597 Q4.42957 721.101 5.12843 721.101 M17.8208 722.814 Q18.6098 722.814 19.5341 723.04 L36.4422 727.278 Q38.0879 727.684 39.4406 728.653 Q40.8157 729.623 41.6724 730.863 Q42.5291 732.08 42.98 733.41 Q43.4534 734.718 43.4534 735.958 Q43.4534 737.694 42.6869 738.866 Q41.9204 740.038 40.5903 740.038 Q39.418 740.038 38.6741 739.272 Q37.9526 738.483 37.9526 737.536 Q37.9526 736.679 38.4486 736.228 Q38.9446 735.777 39.5758 735.777 Q40.3423 735.777 41.0637 736.341 Q41.7851 736.882 42.0106 737.851 Q42.4389 736.972 42.4389 736.048 Q42.4389 734.154 40.703 732.621 Q38.9897 731.066 36.2844 730.389 L19.0607 726.038 Q17.6855 725.723 16.7161 725.723 Q15.8143 725.723 15.3184 725.971 Q14.8224 726.219 14.7097 726.512 Q14.597 726.782 14.597 727.188 Q14.597 728.969 16.2427 730.502 Q17.8659 732.035 20.233 733.004 Q20.8868 733.275 21.022 733.41 Q21.1573 733.523 21.1573 733.838 Q21.1347 734.402 20.6839 734.402 Q20.5486 734.402 20.0075 734.177 Q19.4665 733.951 18.6774 733.545 Q17.8659 733.14 16.9866 732.486 Q16.1074 731.832 15.3409 731.066 Q14.5744 730.276 14.0784 729.217 Q13.5825 728.157 13.5825 727.053 Q13.5825 725.272 14.7548 724.054 Q15.9045 722.814 17.8208 722.814 Z" fill="#000000" fill-rule="evenodd" fill-opacity="1" /><polyline clip-path="url(#clip272)" style="stroke:#ff7e0d; stroke-linecap:butt; stroke-linejoin:round; stroke-width:4; stroke-opacity:1; fill:none" points="
  -1862.1,1041.1 4460.18,1041.1 
  "/>
<polyline clip-path="url(#clip272)" style="stroke:#2ba02b; stroke-linecap:butt; stroke-linejoin:round; stroke-width:4; stroke-opacity:1; fill:none" points="
  -1862.1,1006.58 4460.18,1006.58 
  "/>
<polyline clip-path="url(#clip272)" style="stroke:#d52628; stroke-linecap:butt; stroke-linejoin:round; stroke-width:4; stroke-opacity:1; fill:none" points="
  -1862.1,997.903 4460.18,997.903 
  "/>
<polyline clip-path="url(#clip272)" style="stroke:#9466bd; stroke-linecap:butt; stroke-linejoin:round; stroke-width:4; stroke-opacity:1; fill:none" points="
  -1862.1,1059.48 4460.18,1059.48 
  "/>
<polyline clip-path="url(#clip272)" style="stroke:#8b564a; stroke-linecap:butt; stroke-linejoin:round; stroke-width:4; stroke-opacity:1; fill:none" points="
  -1862.1,1077.44 4460.18,1077.44 
  "/>
<polyline clip-path="url(#clip272)" style="stroke:#e377c2; stroke-linecap:butt; stroke-linejoin:round; stroke-width:4; stroke-opacity:1; fill:none" points="
  -1862.1,1058.03 4460.18,1058.03 
  "/>
<path clip-path="url(#clip270)" d="
M1838.14 455.989 L2282.51 455.989 L2282.51 93.1086 L1838.14 93.1086  Z
  " fill="#ffffff" fill-rule="evenodd" fill-opacity="1"/>
<polyline clip-path="url(#clip270)" style="stroke:#000000; stroke-linecap:butt; stroke-linejoin:round; stroke-width:4; stroke-opacity:1; fill:none" points="
  1838.14,455.989 2282.51,455.989 2282.51,93.1086 1838.14,93.1086 1838.14,455.989 
  "/>
<polyline clip-path="url(#clip270)" style="stroke:#ff7e0d; stroke-linecap:butt; stroke-linejoin:round; stroke-width:4; stroke-opacity:1; fill:none" points="
  1861.56,144.949 2002.05,144.949 
  "/>
<path clip-path="url(#clip270)" d="M2047.71 128.803 L2047.71 133.363 Q2045.05 132.09 2042.69 131.465 Q2040.33 130.84 2038.13 130.84 Q2034.31 130.84 2032.23 132.321 Q2030.17 133.803 2030.17 136.534 Q2030.17 138.826 2031.53 140.007 Q2032.92 141.164 2036.77 141.882 L2039.59 142.46 Q2044.82 143.456 2047.3 145.979 Q2049.8 148.479 2049.8 152.692 Q2049.8 157.715 2046.42 160.307 Q2043.06 162.9 2036.56 162.9 Q2034.1 162.9 2031.33 162.344 Q2028.57 161.789 2025.61 160.701 L2025.61 155.886 Q2028.46 157.483 2031.19 158.293 Q2033.92 159.104 2036.56 159.104 Q2040.56 159.104 2042.74 157.53 Q2044.91 155.956 2044.91 153.039 Q2044.91 150.493 2043.34 149.057 Q2041.79 147.622 2038.22 146.905 L2035.38 146.349 Q2030.15 145.307 2027.81 143.085 Q2025.47 140.863 2025.47 136.905 Q2025.47 132.321 2028.69 129.682 Q2031.93 127.044 2037.6 127.044 Q2040.03 127.044 2042.55 127.483 Q2045.08 127.923 2047.71 128.803 Z" fill="#000000" fill-rule="evenodd" fill-opacity="1" /><path clip-path="url(#clip270)" d="M2061.77 145.724 L2061.77 158.386 L2069.27 158.386 Q2073.04 158.386 2074.84 156.835 Q2076.67 155.261 2076.67 152.043 Q2076.67 148.803 2074.84 147.275 Q2073.04 145.724 2069.27 145.724 L2061.77 145.724 M2061.77 131.511 L2061.77 141.928 L2068.69 141.928 Q2072.11 141.928 2073.78 140.655 Q2075.47 139.358 2075.47 136.719 Q2075.47 134.104 2073.78 132.807 Q2072.11 131.511 2068.69 131.511 L2061.77 131.511 M2057.09 127.669 L2069.03 127.669 Q2074.38 127.669 2077.27 129.891 Q2080.17 132.113 2080.17 136.21 Q2080.17 139.382 2078.69 141.257 Q2077.21 143.131 2074.33 143.594 Q2077.78 144.335 2079.68 146.696 Q2081.6 149.034 2081.6 152.553 Q2081.6 157.182 2078.46 159.705 Q2075.31 162.229 2069.5 162.229 L2057.09 162.229 L2057.09 127.669 Z" fill="#000000" fill-rule="evenodd" fill-opacity="1" /><path clip-path="url(#clip270)" d="M2089.61 127.669 L2094.29 127.669 L2094.29 142.275 L2109.8 127.669 L2115.82 127.669 L2098.66 143.78 L2117.04 162.229 L2110.89 162.229 L2094.29 145.585 L2094.29 162.229 L2089.61 162.229 L2089.61 127.669 Z" fill="#000000" fill-rule="evenodd" fill-opacity="1" /><path clip-path="url(#clip270)" d="M2128.08 127.669 L2132.02 127.669 L2119.98 166.627 L2116.05 166.627 L2128.08 127.669 Z" fill="#000000" fill-rule="evenodd" fill-opacity="1" /><path clip-path="url(#clip270)" d="M2136.67 127.669 L2142.97 127.669 L2158.29 156.581 L2158.29 127.669 L2162.83 127.669 L2162.83 162.229 L2156.53 162.229 L2141.21 133.317 L2141.21 162.229 L2136.67 162.229 L2136.67 127.669 Z" fill="#000000" fill-rule="evenodd" fill-opacity="1" /><path clip-path="url(#clip270)" d="M2172.14 127.669 L2193.99 127.669 L2193.99 131.604 L2176.81 131.604 L2176.81 141.835 L2193.27 141.835 L2193.27 145.77 L2176.81 145.77 L2176.81 158.293 L2194.4 158.293 L2194.4 162.229 L2172.14 162.229 L2172.14 127.669 Z" fill="#000000" fill-rule="evenodd" fill-opacity="1" /><path clip-path="url(#clip270)" d="M2206.76 131.511 L2206.76 158.386 L2212.41 158.386 Q2219.57 158.386 2222.88 155.145 Q2226.21 151.905 2226.21 144.914 Q2226.21 137.969 2222.88 134.752 Q2219.57 131.511 2212.41 131.511 L2206.76 131.511 M2202.09 127.669 L2211.7 127.669 Q2221.74 127.669 2226.44 131.858 Q2231.14 136.025 2231.14 144.914 Q2231.14 153.849 2226.42 158.039 Q2221.7 162.229 2211.7 162.229 L2202.09 162.229 L2202.09 127.669 Z" fill="#000000" fill-rule="evenodd" fill-opacity="1" /><polyline clip-path="url(#clip270)" style="stroke:#2ba02b; stroke-linecap:butt; stroke-linejoin:round; stroke-width:4; stroke-opacity:1; fill:none" points="
  1861.56,196.789 2002.05,196.789 
  "/>
<path clip-path="url(#clip270)" d="M2047.71 180.643 L2047.71 185.203 Q2045.05 183.93 2042.69 183.305 Q2040.33 182.68 2038.13 182.68 Q2034.31 182.68 2032.23 184.161 Q2030.17 185.643 2030.17 188.374 Q2030.17 190.666 2031.53 191.847 Q2032.92 193.004 2036.77 193.722 L2039.59 194.3 Q2044.82 195.296 2047.3 197.819 Q2049.8 200.319 2049.8 204.532 Q2049.8 209.555 2046.42 212.147 Q2043.06 214.74 2036.56 214.74 Q2034.1 214.74 2031.33 214.184 Q2028.57 213.629 2025.61 212.541 L2025.61 207.726 Q2028.46 209.323 2031.19 210.133 Q2033.92 210.944 2036.56 210.944 Q2040.56 210.944 2042.74 209.37 Q2044.91 207.796 2044.91 204.879 Q2044.91 202.333 2043.34 200.897 Q2041.79 199.462 2038.22 198.745 L2035.38 198.189 Q2030.15 197.147 2027.81 194.925 Q2025.47 192.703 2025.47 188.745 Q2025.47 184.161 2028.69 181.522 Q2031.93 178.884 2037.6 178.884 Q2040.03 178.884 2042.55 179.323 Q2045.08 179.763 2047.71 180.643 Z" fill="#000000" fill-rule="evenodd" fill-opacity="1" /><path clip-path="url(#clip270)" d="M2061.77 197.564 L2061.77 210.226 L2069.27 210.226 Q2073.04 210.226 2074.84 208.675 Q2076.67 207.101 2076.67 203.883 Q2076.67 200.643 2074.84 199.115 Q2073.04 197.564 2069.27 197.564 L2061.77 197.564 M2061.77 183.351 L2061.77 193.768 L2068.69 193.768 Q2072.11 193.768 2073.78 192.495 Q2075.47 191.198 2075.47 188.559 Q2075.47 185.944 2073.78 184.647 Q2072.11 183.351 2068.69 183.351 L2061.77 183.351 M2057.09 179.509 L2069.03 179.509 Q2074.38 179.509 2077.27 181.731 Q2080.17 183.953 2080.17 188.05 Q2080.17 191.222 2078.69 193.097 Q2077.21 194.971 2074.33 195.434 Q2077.78 196.175 2079.68 198.536 Q2081.6 200.874 2081.6 204.393 Q2081.6 209.022 2078.46 211.545 Q2075.31 214.069 2069.5 214.069 L2057.09 214.069 L2057.09 179.509 Z" fill="#000000" fill-rule="evenodd" fill-opacity="1" /><path clip-path="url(#clip270)" d="M2089.61 179.509 L2094.29 179.509 L2094.29 194.115 L2109.8 179.509 L2115.82 179.509 L2098.66 195.62 L2117.04 214.069 L2110.89 214.069 L2094.29 197.425 L2094.29 214.069 L2089.61 214.069 L2089.61 179.509 Z" fill="#000000" fill-rule="evenodd" fill-opacity="1" /><path clip-path="url(#clip270)" d="M2128.08 179.509 L2132.02 179.509 L2119.98 218.467 L2116.05 218.467 L2128.08 179.509 Z" fill="#000000" fill-rule="evenodd" fill-opacity="1" /><path clip-path="url(#clip270)" d="M2148.22 184.115 L2141.88 201.314 L2154.59 201.314 L2148.22 184.115 M2145.58 179.509 L2150.89 179.509 L2164.06 214.069 L2159.2 214.069 L2156.05 205.203 L2140.47 205.203 L2137.32 214.069 L2132.39 214.069 L2145.58 179.509 Z" fill="#000000" fill-rule="evenodd" fill-opacity="1" /><path clip-path="url(#clip270)" d="M2173.78 197.564 L2173.78 210.226 L2181.28 210.226 Q2185.05 210.226 2186.86 208.675 Q2188.69 207.101 2188.69 203.883 Q2188.69 200.643 2186.86 199.115 Q2185.05 197.564 2181.28 197.564 L2173.78 197.564 M2173.78 183.351 L2173.78 193.768 L2180.7 193.768 Q2184.13 193.768 2185.79 192.495 Q2187.48 191.198 2187.48 188.559 Q2187.48 185.944 2185.79 184.647 Q2184.13 183.351 2180.7 183.351 L2173.78 183.351 M2169.1 179.509 L2181.05 179.509 Q2186.39 179.509 2189.29 181.731 Q2192.18 183.953 2192.18 188.05 Q2192.18 191.222 2190.7 193.097 Q2189.22 194.971 2186.35 195.434 Q2189.8 196.175 2191.7 198.536 Q2193.62 200.874 2193.62 204.393 Q2193.62 209.022 2190.47 211.545 Q2187.32 214.069 2181.51 214.069 L2169.1 214.069 L2169.1 179.509 Z" fill="#000000" fill-rule="evenodd" fill-opacity="1" /><path clip-path="url(#clip270)" d="M2224.36 209.138 L2224.36 199.856 L2216.72 199.856 L2216.72 196.013 L2228.99 196.013 L2228.99 210.851 Q2226.28 212.772 2223.01 213.768 Q2219.75 214.74 2216.05 214.74 Q2207.95 214.74 2203.36 210.018 Q2198.8 205.272 2198.8 196.823 Q2198.8 188.351 2203.36 183.629 Q2207.95 178.884 2216.05 178.884 Q2219.43 178.884 2222.46 179.717 Q2225.51 180.55 2228.08 182.171 L2228.08 187.147 Q2225.49 184.948 2222.57 183.837 Q2219.66 182.726 2216.44 182.726 Q2210.1 182.726 2206.9 186.268 Q2203.73 189.809 2203.73 196.823 Q2203.73 203.814 2206.9 207.356 Q2210.1 210.897 2216.44 210.897 Q2218.92 210.897 2220.86 210.481 Q2222.81 210.041 2224.36 209.138 Z" fill="#000000" fill-rule="evenodd" fill-opacity="1" /><polyline clip-path="url(#clip270)" style="stroke:#d52628; stroke-linecap:butt; stroke-linejoin:round; stroke-width:4; stroke-opacity:1; fill:none" points="
  1861.56,248.629 2002.05,248.629 
  "/>
<path clip-path="url(#clip270)" d="M2047.71 232.483 L2047.71 237.043 Q2045.05 235.77 2042.69 235.145 Q2040.33 234.52 2038.13 234.52 Q2034.31 234.52 2032.23 236.001 Q2030.17 237.483 2030.17 240.214 Q2030.17 242.506 2031.53 243.687 Q2032.92 244.844 2036.77 245.562 L2039.59 246.14 Q2044.82 247.136 2047.3 249.659 Q2049.8 252.159 2049.8 256.372 Q2049.8 261.395 2046.42 263.987 Q2043.06 266.58 2036.56 266.58 Q2034.1 266.58 2031.33 266.024 Q2028.57 265.469 2025.61 264.381 L2025.61 259.566 Q2028.46 261.163 2031.19 261.973 Q2033.92 262.784 2036.56 262.784 Q2040.56 262.784 2042.74 261.21 Q2044.91 259.636 2044.91 256.719 Q2044.91 254.173 2043.34 252.737 Q2041.79 251.302 2038.22 250.585 L2035.38 250.029 Q2030.15 248.987 2027.81 246.765 Q2025.47 244.543 2025.47 240.585 Q2025.47 236.001 2028.69 233.362 Q2031.93 230.724 2037.6 230.724 Q2040.03 230.724 2042.55 231.163 Q2045.08 231.603 2047.71 232.483 Z" fill="#000000" fill-rule="evenodd" fill-opacity="1" /><path clip-path="url(#clip270)" d="M2061.77 249.404 L2061.77 262.066 L2069.27 262.066 Q2073.04 262.066 2074.84 260.515 Q2076.67 258.941 2076.67 255.723 Q2076.67 252.483 2074.84 250.955 Q2073.04 249.404 2069.27 249.404 L2061.77 249.404 M2061.77 235.191 L2061.77 245.608 L2068.69 245.608 Q2072.11 245.608 2073.78 244.335 Q2075.47 243.038 2075.47 240.399 Q2075.47 237.784 2073.78 236.487 Q2072.11 235.191 2068.69 235.191 L2061.77 235.191 M2057.09 231.349 L2069.03 231.349 Q2074.38 231.349 2077.27 233.571 Q2080.17 235.793 2080.17 239.89 Q2080.17 243.062 2078.69 244.937 Q2077.21 246.811 2074.33 247.274 Q2077.78 248.015 2079.68 250.376 Q2081.6 252.714 2081.6 256.233 Q2081.6 260.862 2078.46 263.385 Q2075.31 265.909 2069.5 265.909 L2057.09 265.909 L2057.09 231.349 Z" fill="#000000" fill-rule="evenodd" fill-opacity="1" /><path clip-path="url(#clip270)" d="M2089.61 231.349 L2094.29 231.349 L2094.29 245.955 L2109.8 231.349 L2115.82 231.349 L2098.66 247.46 L2117.04 265.909 L2110.89 265.909 L2094.29 249.265 L2094.29 265.909 L2089.61 265.909 L2089.61 231.349 Z" fill="#000000" fill-rule="evenodd" fill-opacity="1" /><path clip-path="url(#clip270)" d="M2128.08 231.349 L2132.02 231.349 L2119.98 270.307 L2116.05 270.307 L2128.08 231.349 Z" fill="#000000" fill-rule="evenodd" fill-opacity="1" /><path clip-path="url(#clip270)" d="M2136.67 231.349 L2156.53 231.349 L2156.53 235.284 L2141.35 235.284 L2141.35 245.469 L2155.05 245.469 L2155.05 249.404 L2141.35 249.404 L2141.35 265.909 L2136.67 265.909 L2136.67 231.349 Z" fill="#000000" fill-rule="evenodd" fill-opacity="1" /><path clip-path="url(#clip270)" d="M2183.82 232.483 L2183.82 237.043 Q2181.16 235.77 2178.8 235.145 Q2176.44 234.52 2174.24 234.52 Q2170.42 234.52 2168.34 236.001 Q2166.28 237.483 2166.28 240.214 Q2166.28 242.506 2167.64 243.687 Q2169.03 244.844 2172.88 245.562 L2175.7 246.14 Q2180.93 247.136 2183.41 249.659 Q2185.91 252.159 2185.91 256.372 Q2185.91 261.395 2182.53 263.987 Q2179.17 266.58 2172.67 266.58 Q2170.21 266.58 2167.44 266.024 Q2164.68 265.469 2161.72 264.381 L2161.72 259.566 Q2164.57 261.163 2167.3 261.973 Q2170.03 262.784 2172.67 262.784 Q2176.67 262.784 2178.85 261.21 Q2181.02 259.636 2181.02 256.719 Q2181.02 254.173 2179.45 252.737 Q2177.9 251.302 2174.33 250.585 L2171.49 250.029 Q2166.26 248.987 2163.92 246.765 Q2161.58 244.543 2161.58 240.585 Q2161.58 236.001 2164.8 233.362 Q2168.04 230.724 2173.71 230.724 Q2176.14 230.724 2178.66 231.163 Q2181.19 231.603 2183.82 232.483 Z" fill="#000000" fill-rule="evenodd" fill-opacity="1" /><path clip-path="url(#clip270)" d="M2209.59 249.705 Q2211.09 250.214 2212.51 251.881 Q2213.94 253.548 2215.38 256.464 L2220.12 265.909 L2215.1 265.909 L2210.68 257.043 Q2208.96 253.571 2207.34 252.436 Q2205.75 251.302 2202.97 251.302 L2197.88 251.302 L2197.88 265.909 L2193.2 265.909 L2193.2 231.349 L2203.76 231.349 Q2209.68 231.349 2212.6 233.825 Q2215.51 236.302 2215.51 241.302 Q2215.51 244.566 2213.99 246.719 Q2212.48 248.872 2209.59 249.705 M2197.88 235.191 L2197.88 247.46 L2203.76 247.46 Q2207.14 247.46 2208.85 245.909 Q2210.58 244.335 2210.58 241.302 Q2210.58 238.27 2208.85 236.742 Q2207.14 235.191 2203.76 235.191 L2197.88 235.191 Z" fill="#000000" fill-rule="evenodd" fill-opacity="1" /><polyline clip-path="url(#clip270)" style="stroke:#9466bd; stroke-linecap:butt; stroke-linejoin:round; stroke-width:4; stroke-opacity:1; fill:none" points="
  1861.56,300.469 2002.05,300.469 
  "/>
<path clip-path="url(#clip270)" d="M2025.47 283.189 L2031.77 283.189 L2047.09 312.101 L2047.09 283.189 L2051.63 283.189 L2051.63 317.749 L2045.33 317.749 L2030.01 288.837 L2030.01 317.749 L2025.47 317.749 L2025.47 283.189 Z" fill="#000000" fill-rule="evenodd" fill-opacity="1" /><path clip-path="url(#clip270)" d="M2060.93 283.189 L2082.78 283.189 L2082.78 287.124 L2065.61 287.124 L2065.61 297.355 L2082.07 297.355 L2082.07 301.29 L2065.61 301.29 L2065.61 313.813 L2083.2 313.813 L2083.2 317.749 L2060.93 317.749 L2060.93 283.189 Z" fill="#000000" fill-rule="evenodd" fill-opacity="1" /><path clip-path="url(#clip270)" d="M2095.56 287.031 L2095.56 313.906 L2101.21 313.906 Q2108.36 313.906 2111.67 310.665 Q2115.01 307.425 2115.01 300.434 Q2115.01 293.489 2111.67 290.272 Q2108.36 287.031 2101.21 287.031 L2095.56 287.031 M2090.89 283.189 L2100.49 283.189 Q2110.54 283.189 2115.24 287.378 Q2119.94 291.545 2119.94 300.434 Q2119.94 309.369 2115.21 313.559 Q2110.49 317.749 2100.49 317.749 L2090.89 317.749 L2090.89 283.189 Z" fill="#000000" fill-rule="evenodd" fill-opacity="1" /><path clip-path="url(#clip270)" d="M2134.77 283.189 L2138.71 283.189 L2126.67 322.147 L2122.74 322.147 L2134.77 283.189 Z" fill="#000000" fill-rule="evenodd" fill-opacity="1" /><path clip-path="url(#clip270)" d="M2154.91 287.795 L2148.57 304.994 L2161.28 304.994 L2154.91 287.795 M2152.27 283.189 L2157.58 283.189 L2170.75 317.749 L2165.89 317.749 L2162.74 308.883 L2147.16 308.883 L2144.01 317.749 L2139.08 317.749 L2152.27 283.189 Z" fill="#000000" fill-rule="evenodd" fill-opacity="1" /><path clip-path="url(#clip270)" d="M2180.47 301.244 L2180.47 313.906 L2187.97 313.906 Q2191.74 313.906 2193.55 312.355 Q2195.38 310.781 2195.38 307.563 Q2195.38 304.323 2193.55 302.795 Q2191.74 301.244 2187.97 301.244 L2180.47 301.244 M2180.47 287.031 L2180.47 297.448 L2187.39 297.448 Q2190.82 297.448 2192.48 296.175 Q2194.17 294.878 2194.17 292.239 Q2194.17 289.624 2192.48 288.327 Q2190.82 287.031 2187.39 287.031 L2180.47 287.031 M2175.79 283.189 L2187.74 283.189 Q2193.08 283.189 2195.98 285.411 Q2198.87 287.633 2198.87 291.73 Q2198.87 294.902 2197.39 296.777 Q2195.91 298.651 2193.04 299.114 Q2196.49 299.855 2198.39 302.216 Q2200.31 304.554 2200.31 308.073 Q2200.31 312.702 2197.16 315.225 Q2194.01 317.749 2188.2 317.749 L2175.79 317.749 L2175.79 283.189 Z" fill="#000000" fill-rule="evenodd" fill-opacity="1" /><path clip-path="url(#clip270)" d="M2231.05 312.818 L2231.05 303.536 L2223.41 303.536 L2223.41 299.693 L2235.68 299.693 L2235.68 314.531 Q2232.97 316.452 2229.7 317.448 Q2226.44 318.42 2222.74 318.42 Q2214.63 318.42 2210.05 313.698 Q2205.49 308.952 2205.49 300.503 Q2205.49 292.031 2210.05 287.309 Q2214.63 282.564 2222.74 282.564 Q2226.12 282.564 2229.15 283.397 Q2232.2 284.23 2234.77 285.851 L2234.77 290.827 Q2232.18 288.628 2229.26 287.517 Q2226.35 286.406 2223.13 286.406 Q2216.79 286.406 2213.59 289.948 Q2210.42 293.489 2210.42 300.503 Q2210.42 307.494 2213.59 311.036 Q2216.79 314.577 2223.13 314.577 Q2225.61 314.577 2227.55 314.161 Q2229.5 313.721 2231.05 312.818 Z" fill="#000000" fill-rule="evenodd" fill-opacity="1" /><polyline clip-path="url(#clip270)" style="stroke:#8b564a; stroke-linecap:butt; stroke-linejoin:round; stroke-width:4; stroke-opacity:1; fill:none" points="
  1861.56,352.309 2002.05,352.309 
  "/>
<path clip-path="url(#clip270)" d="M2025.47 335.029 L2031.77 335.029 L2047.09 363.941 L2047.09 335.029 L2051.63 335.029 L2051.63 369.589 L2045.33 369.589 L2030.01 340.677 L2030.01 369.589 L2025.47 369.589 L2025.47 335.029 Z" fill="#000000" fill-rule="evenodd" fill-opacity="1" /><path clip-path="url(#clip270)" d="M2060.93 335.029 L2082.78 335.029 L2082.78 338.964 L2065.61 338.964 L2065.61 349.195 L2082.07 349.195 L2082.07 353.13 L2065.61 353.13 L2065.61 365.653 L2083.2 365.653 L2083.2 369.589 L2060.93 369.589 L2060.93 335.029 Z" fill="#000000" fill-rule="evenodd" fill-opacity="1" /><path clip-path="url(#clip270)" d="M2095.56 338.871 L2095.56 365.746 L2101.21 365.746 Q2108.36 365.746 2111.67 362.505 Q2115.01 359.265 2115.01 352.274 Q2115.01 345.329 2111.67 342.112 Q2108.36 338.871 2101.21 338.871 L2095.56 338.871 M2090.89 335.029 L2100.49 335.029 Q2110.54 335.029 2115.24 339.218 Q2119.94 343.385 2119.94 352.274 Q2119.94 361.209 2115.21 365.399 Q2110.49 369.589 2100.49 369.589 L2090.89 369.589 L2090.89 335.029 Z" fill="#000000" fill-rule="evenodd" fill-opacity="1" /><path clip-path="url(#clip270)" d="M2134.77 335.029 L2138.71 335.029 L2126.67 373.987 L2122.74 373.987 L2134.77 335.029 Z" fill="#000000" fill-rule="evenodd" fill-opacity="1" /><path clip-path="url(#clip270)" d="M2143.36 335.029 L2163.22 335.029 L2163.22 338.964 L2148.04 338.964 L2148.04 349.149 L2161.74 349.149 L2161.74 353.084 L2148.04 353.084 L2148.04 369.589 L2143.36 369.589 L2143.36 335.029 Z" fill="#000000" fill-rule="evenodd" fill-opacity="1" /><path clip-path="url(#clip270)" d="M2190.51 336.163 L2190.51 340.723 Q2187.85 339.45 2185.49 338.825 Q2183.13 338.2 2180.93 338.2 Q2177.11 338.2 2175.03 339.681 Q2172.97 341.163 2172.97 343.894 Q2172.97 346.186 2174.33 347.367 Q2175.72 348.524 2179.57 349.242 L2182.39 349.82 Q2187.62 350.816 2190.1 353.339 Q2192.6 355.839 2192.6 360.052 Q2192.6 365.075 2189.22 367.667 Q2185.86 370.26 2179.36 370.26 Q2176.9 370.26 2174.13 369.704 Q2171.37 369.149 2168.41 368.061 L2168.41 363.246 Q2171.26 364.843 2173.99 365.653 Q2176.72 366.464 2179.36 366.464 Q2183.36 366.464 2185.54 364.89 Q2187.71 363.316 2187.71 360.399 Q2187.71 357.853 2186.14 356.417 Q2184.59 354.982 2181.02 354.265 L2178.18 353.709 Q2172.95 352.667 2170.61 350.445 Q2168.27 348.223 2168.27 344.265 Q2168.27 339.681 2171.49 337.042 Q2174.73 334.404 2180.4 334.404 Q2182.83 334.404 2185.35 334.843 Q2187.88 335.283 2190.51 336.163 Z" fill="#000000" fill-rule="evenodd" fill-opacity="1" /><path clip-path="url(#clip270)" d="M2216.28 353.385 Q2217.78 353.894 2219.2 355.561 Q2220.63 357.228 2222.07 360.144 L2226.81 369.589 L2221.79 369.589 L2217.37 360.723 Q2215.65 357.251 2214.03 356.116 Q2212.44 354.982 2209.66 354.982 L2204.57 354.982 L2204.57 369.589 L2199.89 369.589 L2199.89 335.029 L2210.45 335.029 Q2216.37 335.029 2219.29 337.505 Q2222.2 339.982 2222.2 344.982 Q2222.2 348.246 2220.68 350.399 Q2219.17 352.552 2216.28 353.385 M2204.57 338.871 L2204.57 351.14 L2210.45 351.14 Q2213.82 351.14 2215.54 349.589 Q2217.27 348.015 2217.27 344.982 Q2217.27 341.95 2215.54 340.422 Q2213.82 338.871 2210.45 338.871 L2204.57 338.871 Z" fill="#000000" fill-rule="evenodd" fill-opacity="1" /><polyline clip-path="url(#clip270)" style="stroke:#e377c2; stroke-linecap:butt; stroke-linejoin:round; stroke-width:4; stroke-opacity:1; fill:none" points="
  1861.56,404.149 2002.05,404.149 
  "/>
<path clip-path="url(#clip270)" d="M2041.3 391.475 L2034.96 408.674 L2047.67 408.674 L2041.3 391.475 M2038.66 386.869 L2043.96 386.869 L2057.14 421.429 L2052.27 421.429 L2049.13 412.563 L2033.55 412.563 L2030.4 421.429 L2025.47 421.429 L2038.66 386.869 Z" fill="#000000" fill-rule="evenodd" fill-opacity="1" /><path clip-path="url(#clip270)" d="M2066.86 404.924 L2066.86 417.586 L2074.36 417.586 Q2078.13 417.586 2079.94 416.035 Q2081.77 414.461 2081.77 411.243 Q2081.77 408.003 2079.94 406.475 Q2078.13 404.924 2074.36 404.924 L2066.86 404.924 M2066.86 390.711 L2066.86 401.128 L2073.78 401.128 Q2077.21 401.128 2078.87 399.855 Q2080.56 398.558 2080.56 395.919 Q2080.56 393.304 2078.87 392.007 Q2077.21 390.711 2073.78 390.711 L2066.86 390.711 M2062.18 386.869 L2074.13 386.869 Q2079.47 386.869 2082.37 389.091 Q2085.26 391.313 2085.26 395.41 Q2085.26 398.582 2083.78 400.457 Q2082.3 402.331 2079.43 402.794 Q2082.88 403.535 2084.77 405.896 Q2086.7 408.234 2086.7 411.753 Q2086.7 416.382 2083.55 418.905 Q2080.4 421.429 2074.59 421.429 L2062.18 421.429 L2062.18 386.869 Z" fill="#000000" fill-rule="evenodd" fill-opacity="1" /><path clip-path="url(#clip270)" d="M2117.44 416.498 L2117.44 407.216 L2109.8 407.216 L2109.8 403.373 L2122.07 403.373 L2122.07 418.211 Q2119.36 420.132 2116.09 421.128 Q2112.83 422.1 2109.13 422.1 Q2101.02 422.1 2096.44 417.378 Q2091.88 412.632 2091.88 404.183 Q2091.88 395.711 2096.44 390.989 Q2101.02 386.244 2109.13 386.244 Q2112.51 386.244 2115.54 387.077 Q2118.59 387.91 2121.16 389.531 L2121.16 394.507 Q2118.57 392.308 2115.65 391.197 Q2112.74 390.086 2109.52 390.086 Q2103.18 390.086 2099.98 393.628 Q2096.81 397.169 2096.81 404.183 Q2096.81 411.174 2099.98 414.716 Q2103.18 418.257 2109.52 418.257 Q2112 418.257 2113.94 417.841 Q2115.89 417.401 2117.44 416.498 Z" fill="#000000" fill-rule="evenodd" fill-opacity="1" /><path clip-path="url(#clip270)" d="M2137.99 386.869 L2141.93 386.869 L2129.89 425.827 L2125.95 425.827 L2137.99 386.869 Z" fill="#000000" fill-rule="evenodd" fill-opacity="1" /><path clip-path="url(#clip270)" d="M2146.58 386.869 L2166.44 386.869 L2166.44 390.804 L2151.26 390.804 L2151.26 400.989 L2164.96 400.989 L2164.96 404.924 L2151.26 404.924 L2151.26 421.429 L2146.58 421.429 L2146.58 386.869 Z" fill="#000000" fill-rule="evenodd" fill-opacity="1" /><path clip-path="url(#clip270)" d="M2193.73 388.003 L2193.73 392.563 Q2191.07 391.29 2188.71 390.665 Q2186.35 390.04 2184.15 390.04 Q2180.33 390.04 2178.25 391.521 Q2176.19 393.003 2176.19 395.734 Q2176.19 398.026 2177.55 399.207 Q2178.94 400.364 2182.78 401.082 L2185.61 401.66 Q2190.84 402.656 2193.32 405.179 Q2195.82 407.679 2195.82 411.892 Q2195.82 416.915 2192.44 419.507 Q2189.08 422.1 2182.57 422.1 Q2180.12 422.1 2177.34 421.544 Q2174.59 420.989 2171.63 419.901 L2171.63 415.086 Q2174.47 416.683 2177.2 417.493 Q2179.94 418.304 2182.57 418.304 Q2186.58 418.304 2188.76 416.73 Q2190.93 415.156 2190.93 412.239 Q2190.93 409.693 2189.36 408.257 Q2187.81 406.822 2184.24 406.105 L2181.39 405.549 Q2176.16 404.507 2173.83 402.285 Q2171.49 400.063 2171.49 396.105 Q2171.49 391.521 2174.7 388.882 Q2177.95 386.244 2183.62 386.244 Q2186.05 386.244 2188.57 386.683 Q2191.09 387.123 2193.73 388.003 Z" fill="#000000" fill-rule="evenodd" fill-opacity="1" /><path clip-path="url(#clip270)" d="M2219.5 405.225 Q2221 405.734 2222.41 407.401 Q2223.85 409.068 2225.28 411.984 L2230.03 421.429 L2225.01 421.429 L2220.58 412.563 Q2218.87 409.091 2217.25 407.956 Q2215.65 406.822 2212.88 406.822 L2207.78 406.822 L2207.78 421.429 L2203.11 421.429 L2203.11 386.869 L2213.66 386.869 Q2219.59 386.869 2222.51 389.345 Q2225.42 391.822 2225.42 396.822 Q2225.42 400.086 2223.89 402.239 Q2222.39 404.392 2219.5 405.225 M2207.78 390.711 L2207.78 402.98 L2213.66 402.98 Q2217.04 402.98 2218.76 401.429 Q2220.49 399.855 2220.49 396.822 Q2220.49 393.79 2218.76 392.262 Q2217.04 390.711 2213.66 390.711 L2207.78 390.711 Z" fill="#000000" fill-rule="evenodd" fill-opacity="1" /></svg>
